/* XPM */
static char *result[] = {
/* columns rows colors chars-per-pixel */
"64 64 208 2 ",
"   c #000001",
".  c #0C0604",
"X  c #020D05",
"o  c #0D0905",
"O  c #120C08",
"+  c #061205",
"@  c #061F06",
"#  c #051607",
"$  c #181509",
"%  c #171310",
"&  c #171819",
"*  c #22150E",
"=  c #251411",
"-  c #2F1B11",
";  c #361F10",
":  c #072107",
">  c #062C0E",
",  c #11280B",
"<  c #0C3D0C",
"1  c #0A350B",
"2  c #063D15",
"3  c #083D15",
"4  c #1B2F13",
"5  c #2B201E",
"6  c #3B2211",
"7  c #352D24",
"8  c #46271D",
"9  c #6C3B1E",
"0  c #65381C",
"q  c #713E1E",
"w  c #4D2A21",
"e  c #573A22",
"r  c #4A3828",
"t  c #643922",
"y  c #753F20",
"u  c #0D420D",
"i  c #12490F",
"p  c #0B4413",
"a  c #0D4810",
"s  c #0B4E18",
"d  c #134D10",
"f  c #1F4D14",
"g  c #0F5E1B",
"h  c #0D5515",
"j  c #155413",
"k  c #234E1B",
"l  c #235319",
"z  c #3C4A1F",
"x  c #0F611C",
"c  c #15651C",
"v  c #27731B",
"b  c #347D1A",
"n  c #285720",
"m  c #3A5421",
"M  c #0E6E25",
"N  c #0E7C29",
"B  c #0D7726",
"V  c #107526",
"C  c #107C29",
"Z  c #177827",
"A  c #346829",
"S  c #454D15",
"D  c #74401F",
"F  c #774E1A",
"G  c #6A4D1D",
"H  c #7B7B04",
"J  c #425E25",
"K  c #584130",
"L  c #694924",
"P  c #744120",
"I  c #7B4A25",
"U  c #685227",
"Y  c #715828",
"T  c #604239",
"R  c #4B6526",
"E  c #095A76",
"W  c #445F4B",
"Q  c #6B5A46",
"!  c #6B5B48",
"~  c #7D705D",
"^  c #786953",
"/  c #767474",
"(  c #82551C",
")  c #807F00",
"_  c #825426",
"`  c #865731",
"'  c #804F2C",
"]  c #99773E",
"[  c #8A6631",
"{  c #A3793F",
"}  c #AA7938",
"|  c #90704C",
" . c #A17642",
".. c #A37A42",
"X. c #A97E43",
"o. c #A47A56",
"O. c #827661",
"+. c #14802A",
"@. c #1A8329",
"#. c #288B29",
"$. c #378723",
"%. c #299129",
"&. c #3A9325",
"*. c #3B9A26",
"=. c #389928",
"-. c #2A8538",
";. c #3DA129",
":. c #479A28",
">. c #749334",
",. c #41A529",
"<. c #48A52C",
"1. c #52A828",
"2. c #57B125",
"3. c #64A218",
"4. c #779955",
"5. c #818001",
"6. c #B9A00F",
"7. c #BBA211",
"8. c #9C843C",
"9. c #AE893A",
"0. c #AD873A",
"q. c #B69332",
"w. c #91AD21",
"e. c #D2BE1F",
"r. c #CDB722",
"t. c #D2BD21",
"y. c #D7B636",
"u. c #93C616",
"i. c #A4D315",
"p. c #E2DB07",
"a. c #E5E406",
"s. c #F2ED02",
"d. c #F6F206",
"f. c #FFFF00",
"g. c #FEFA0A",
"h. c #F7F507",
"j. c #F7F512",
"k. c #D5C021",
"l. c #EBD428",
"z. c #F1D828",
"x. c #E1C528",
"c. c #DDE308",
"v. c #9A844C",
"b. c #AB8144",
"n. c #AB844C",
"m. c #B28A52",
"M. c #968767",
"N. c #BD9768",
"B. c #AB9170",
"V. c #B08F6C",
"C. c #BFA17D",
"Z. c #BEA67A",
"A. c #C1934A",
"S. c #C79A49",
"D. c #D49F4C",
"F. c #C9A647",
"G. c #D4A54B",
"H. c #D8A750",
"J. c #DDAA53",
"K. c #D7A651",
"L. c #DCB047",
"P. c #E5B74B",
"I. c #E0AD53",
"U. c #E8B356",
"Y. c #C2A67C",
"T. c #D4B57C",
"R. c #C19D6D",
"E. c #005B82",
"W. c #2C4F9C",
"Q. c #3A5494",
"!. c #4B67A7",
"~. c #636C8F",
"^. c #807F8B",
"/. c #73B2A7",
"(. c #08BAF7",
"). c #2CB9E5",
"_. c #17C0FC",
"`. c #838394",
"'. c #828283",
"]. c #88BD94",
"[. c #B5A082",
"{. c #CAAC85",
"}. c #D6B58C",
"|. c #DAB88E",
" X c #DCBB91",
".X c #CAB093",
"XX c #8AC197",
"oX c #D5C29A",
"OX c #E5C79D",
"+X c #ECD292",
"@X c #EBCEA6",
"#X c #E6D6AB",
"$X c #F0D5AD",
"%X c #F6DAAF",
"&X c #F5DBB2",
"*X c #FEE5BC",
"=X c #FFE8BF",
"-X c #FFE9A9",
";X c #FFEAC2",
":X c #FFE7C1",
">X c #FFF3DD",
",X c #EFE6C8",
"<X c #E9E8E8",
"1X c #E9EDF5",
"2X c #FFFFFE",
"3X c #F0ECEB",
"4X c #D1D3DA",
"5X c None",
/* pixels */
"5X5X5X5X5X5X5X5X5X5X5X5X5X5X5X5X5X5X5X5X5X5X5X5X5X5X5X5X5X5X5X5X5X5X5X5X5X5X5X5X5X5X5X5X5X5X5X5X5X5X5X5X5X5X5X5X5X5X5X5X5X5X5X5X",
"5X5X5X5X5X5X5X5X5X5X5X5X5X5X5X5X5X5X5X5X5X5X5X5X5X5X5X5X5X5X5X5X5X5X5X5X5X5X5X5X5X5X5X5X5X5X5X5X5X5X5X5X5X5X5X5X5X5X5X5X5X5X5X5X",
"5X5X5X5X5X5X5X5X5X5X5X5X5X5X5X5X5X5X5X5X5X5X5X5X5X5X5X5X5X5X5X5X5X5X5X5X5X5X5X5X5X5X5X5X5X5X5X5X5X5X5X5X5X5X5X5X5X5X5X5X5X5X5X5X",
"5X5X5X5X5X5X5X5X5X5X5X5X5X5X5X5X5X5X5X5X5X5X5X5X5X5X5X5X5X5X5X5X5X5X5X5X5X5X5X5X5X5X5X5X5X5X5X5X5X5X5X5X5X5X5X5X5X5X5X5X5X5X5X5X",
"5X5X5X5X5X5X5X5X5X5X5X5X5X5X5X5X5X5X5X5X5X5X5X5X5X5X5X5X5X5X5X5X5X5X5X5X5X5X5X5X5X5X5X5X5X5X5X5X5X5X5X5X5X5X5X5X5X5X5X5X5X5X5X5X",
"5X5X5X5X5X5X5X5X5X5X5X5X5X5X....{ ..` D L Z C g u j *.,.,.,.;.@.C 5X5X5X5X5X5X5X5X5X5X5X5X5X5X5X5X5X5X5X5X5X5X5X5X5X5X5X5X5X5X5X",
"5X5X5X5X5X5X5X5X5X5X5X5X5X5X.... . .[ P L Z +.M u d *.,.,.,.*.C C 5X5X5X5X5X5X5X5X5X5X5X5X5X5X5X5X5X5X5X5X5X5X5X5X5X5X5X5X5X5X5X",
"5X5X5X5X5X5X5X5X5X..b.H.5Xy.t.t.e.e.q.` ` $.%.c < d *.,.,.,.,.%.%.=.5X*.+.C x u 5X5X5X5X5X5X5X5X5X5X5X5X5X5X5X5X5X5X5X5X5X5X5X5X",
"5X5X5X5X5X5X5X5X....b.J.J.z.f.f.f.f.t. ...<.,.v u i *.,.,.,.,.,.,.,.,.*.+.N g u u 5X5X5X5X5X5X5X5X5X5X5X5X5X5X5X5X5X5X5X5X5X5X5X",
"5X5X5X5X5X5X5X5X9.9.9.L.P.l.d.d.d.h.t.X.b.<.,.v u i *.,.,.,.,.,.;.,.,.;.@.+.c d d 5X5X5X5X5X5X5X5X5X5X5X5X5X5X5X5X5X5X5X5X5X5X5X",
"5X5X5X5X5X5X....t.d.d.h.g.t.0.0.9.9.S.K.F.<.<.v u i *.,.,.,.,.;.,.,.,.,.;.;.*.*.=.+.C g u u u u 5X5X5X5X5X5X5X5X5X5X5X5X5X5X5X5X",
"5X5X5X5X5X5X.. .t.f.f.f.f.t. . .{ ..m.I.F.<.;.v u i *.,.,.,.,.,.,.,.,.,.,.,.,.,.;.C N g u u u u 5X5X5X5X5X5X5X5X5X5X5X5X5X5X5X5X",
"5X5X5X5XP _ e.t.t.t.t.l.z.y.A.A.A.A.y.z.l.i.i.3.v v v v &.,.,.,.,.,.,.,.,.,.;.,.,.%.%.Z g g g g h 5X5X5X5X5X5X5X5X5X5X5X5X5X5X5X",
"5X5X5XD P ( s.f.t. .X.H.J.J.I.I.I.J.z.f.f.f.f.i.;.*.i < v ,.,.,.;.,.,.,.,.,.:.,.,.,.<.%.C C C C g u u 5X5X5X5X5X5X5X5X5X5X5X5X5X",
"5X5X5X5XP ( p.s.r.X.b.H.H.H.H.H.H.K.l.f.f.d.d.u.;.*.d u v ,.,.*.*.*.*.*.,.,.,.,.,.;.;.%.C C C C x u a 5X5X5X5X5X5X5X5X5X5X5X5X5X",
"5X5X5X5X5X5X( ( } K.G.b.X.b.X.b.b.X.k.f.d.q.q.>.,.*.i u v ,.*.j d d d j *.,.,.,.*.@.C C C C V C C V M X   5X5X5X5X5X5X5X5X5X5X5X",
"5X5X5X5X5X5XP 9 } J.H.b.0...{ { { { e.f.h.0. .>.;.=.a < v ;.*.a u u u d *.,.,.,.;.C C V N C C N C C M X   5X5X5X5X5X5X5X5X5X5X5X",
"5X5X5X5X5X5X5XP } 5XA.K r | N.N.N.N.F.k.r.0. .w.i.u.$.v v v v v v v v v #.%.%.%.#.C C N C C C C C C V p 3 > 5X5X5X5X5X5X5X5X5X5X",
"5X5X5X5X5X5X5X5X5X5X5X    Q |.}.}.}.N.] ..X. .t.f.h.2.,.v u a =.,.,.,.;.Z C N N C C C C V C C V V N N N +.3     5X5X5X5X5X5X5X5X",
"5X5X5X5X5X5X5X5X5X5X5X    Q |.}.|. XN.n.X.9.b.t.h.a.1.;.v a j &.*.*.;.*.C C C C C C C N C C C C C N C C C 3     5X5X5X5X5X5X5X5X",
"5X5X5X5X5X5X5X5X5X5X5X  . ! |.|.&X*XOX{.T.j.d.t.0.8.Z @.Z V M j d c +.C C C C C C C C C C C C N C C C C C 3     5X5X5X5X5X5X5X5X",
"5X5X5X5X5X5X5X5X5X5X5X    ! |.|.*X;X@X.XT.g.g.t. .] Z @.C C V p u g C C C Z C C C C N C C C C C C C C C N 3     5X5X5X5X5X5X5X5X",
"5X5X5X5X5X5X5X5X5X5X5X    e o.o.O.~ [.$X+Xg.f.t. .] R J n x c g x g x x g g g g g g g s 3 p g g g g x V C g 2 3 X   5X5X5X5X5X5X",
"5X5X5X5X5X5X5X5X5X5X5X    6 q 0 .   ~ ;X-Xg.f.t.{ { I q z u p C N g < u u u u u u < p @     < u 3 u d V C C N V X     5X5X5X5X5X",
"5X5X5X5X5X5X5X5X5X5X5X% O w y t = & M.,X-Xj.d.r.X.{ P P S k n Z -.A j n a p u u < < < :   X 1 < < < < M V V V M #     5X5X5X5X5X",
"5X5X5X5X5X5X5X5X5X  % B.C.^.W.!.4X<X,X:X%Xm.0.S.H.D.' q | Z.{.#X#X#X#XoXn < u u < X     5X5XX     . X p a a a a < < @     5X5X5X",
"5X5X5X5X5X5X5X5X    % C.}.^.W.!.1X2X>X:X%Xm. .S.J.D._ 9 o.}.}.*X=X=X;X#Xn u u u < X     5X5X        X < u u u u a a @     5X5X5X",
"5X5X5X5X5X5X5X5X    % C.}./.W.!.1X2X>X:X$X] ` q.z.x.( q V.@X@X:X=XOXT.Z.4 : : : :     5X5X5X5X    5X  @ : : : : @ : # 5X5X5X5X5X",
"5X5X5X5X5X5X5X5X    % C.|.`.Q.!.1X2X>X*X$X' t 6.f.s.( q N.:X;X;X=X}...[ O         5X5X5X5X5X5X5X5X5X5X              5X5X5X5X5X5X",
"5X5X5X5X5X5X5X5X5X  % B.Y.^.Q.!.<X2X>X=X$X` y 6.f.s.( I B.,X#X*X%XY.[ [ O         5X5X5X5X5X5X5X5X5X5X              5X5X5X5X5X5X",
"5X5X5X5X5X5X5X5X5X5X5X% % ! .X.X:X;X:X=X$X` y 6.f.d.G.D./._.).M.m.L O O       5X5X5X5X5X5X5X5X5X5X5X5X5X5X5X5X5X5X5X5X5X5X5X5X5X",
"5X5X5X5X5X5X5X5X5X5X5X    Q  X X&X:X:X:X$XI t 6.f.g.P.I./.(.(.v.0.r         5X5X5X5X5X5X5X5X5X5X5X5X5X5X5X5X5X5X5X5X5X5X5X5X5X5X",
"5X5X5X5X5X5X5X5X5X5X5X5X5Xr Q ^  X@X@X@X XV.o.q.6.r.l.z.4.E.E K e L Y Y H 5.5.5X5X5X5X5X5X5X5X5X5X5X5X5X5X5X5X5X5X5X5X5X5X5X5X5X",
"5X5X5X5X5X5X5X5X5X5X5X5X5X5X  % C.}.}.}.}.}. Xo.0 ( s.f.H         U U.P.f.f.f.5X5X5X5X5X5X5X5X5X5X5X5X5X5X5X5X5X5X5X5X5X5X5X5X5X",
"5X5X5X5X5X5X5X5X5X5X5X5X5X5X  % B.[.{.Z.Y.Z.Y.| 0 D a.g.)     X X U S.S.a.a.a.5X5X5X5X5X5X5X5X5X5X5X5X5X5X5X5X5X5X5X5X5X5X5X5X5X",
"5X5X5X5X5X5X5X5X5X5X5X5X5X5X5X5X% % 4 k k k k , . * F.P.Y     1 < , $ $ $ $ $ 5X5X5X5X5X5X5X5X5X5X5X5X5X5X5X5X5X5X5X5X5X5X5X5X5X",
"5X5X5X5X5X5X5X5X5X5X5X5X5X5X5X5X    @ u u < u @   $ S.U.Y     1 u @           5X5X5X5X5X5X5X5X5X5X5X5X5X5X5X5X5X5X5X5X5X5X5X5X5X",
"5X5X5X5X5X5X5X5X5X5X5X5X5X5X  X 3 3 s g x x x p @ , L Y z p p g x 1         5X5X5X5X5X5X5X5X5X5X5X5X5X5X5X5X5X5X5X5X5X5X5X5X5X5X",
"5X5X5X5X5X5X5X5X5X5X5X5X5X    X M C C C C N N x u 1     3 +.C N C p     5X5X5X5X5X5X5X5X5X5X5X5X5X5X5X5X5X5X5X5X5X5X5X5X5X5X5X5X",
"5X5X5X5X5X5X5X5X5X5X5X5X5XX X @ M C N C N M M g a u # X 3 M M N N 3     5X5X5X5X5X5X5X5X5X5X5X5X5X5X5X5X5X5X5X5X5X5X5X5X5X5X5X5X",
"5X5X5X5X5X5X5X5X5X5X5X    3 M M C C C C M @ X 3 N V M M 2 X # M N 2     5X5X5X5X5X5X5X5X5X5X5X5X5X5X5X5X5X5X5X5X5X5X5X5X5X5X5X5X",
"5X5X5X5X5X5X5X5X5X5X5X    3 +.@.N N C C M X   3 B B B N 2   X M +.2     5X5X5X5X5X5X5X5X5X5X5X5X5X5X5X5X5X5X5X5X5X5X5X5X5X5X5X5X",
"5X5X5X5X5X5X5X5X5X5X5X    S u.3.R J J J m X   W XX].].].W   X m J n 3 3 X   5X5X5X5X5X5X5X5X5X5X5X5X5X5X5X5X5X5X5X5X5X5X5X5X5X5X",
"5X5X5X5X5X5X5X5X5X5X5X    5.f.d.( q q D 9 .   '.2X2X2X2X'.  . 9 y J N M X     5X5X5X5X5X5X5X5X5X5X5X5X5X5X5X5X5X5X5X5X5X5X5X5X5X",
"5X5X5X5X5X5X5X5X5X5X5X  . 3.h.c.( G L G L .   / 1X<X<X1X/   . 0 L J N M X     5X5X5X5X5X5X5X5X5X5X5X5X5X5X5X5X5X5X5X5X5X5X5X5X5X",
"5X5X5X5X5X5X5X5X5X5X5X    l 2.2.:.:.:.:.$.+   5 T t t T -   + :.:.#.N M X     5X5X5X5X5X5X5X5X5X5X5X5X5X5X5X5X5X5X5X5X5X5X5X5X5X",
"5X5X5X5X5X5X5X5X5X5X5X    l ,.,.,.,.,.,.&.+   = 8 8 w w =   + &.<.%.+.M X     5X5X5X5X5X5X5X5X5X5X5X5X5X5X5X5X5X5X5X5X5X5X5X5X5X",
"5X5X5X5X5X5X5X5X5X5X5X    , l l ;.,.,.<.&.+   - 0 e e t -   X &.<.v 2 2 X   5X5X5X5X5X5X5X5X5X5X5X5X5X5X5X5X5X5X5X5X5X5X5X5X5X5X",
"5X5X5X5X5X5X5X5X5X5X5X        + &.,.,.,.&.X   6 D P P P 6   + &.,.l     5X5X5X5X5X5X5X5X5X5X5X5X5X5X5X5X5X5X5X5X5X5X5X5X5X5X5X5X",
"5X5X5X5X5X5X5X5X5X5X5X        + $.*.&.&.$.+   8 ` ' I ' 6   + $.*.f     5X5X5X5X5X5X5X5X5X5X5X5X5X5X5X5X5X5X5X5X5X5X5X5X5X5X5X5X",
"5X5X5X5X5X5X5X5X5X5X5X5X5X      X + + + X     ^ %X@X{.{.Q     + + X 5X5X5X5X5X5X5X5X5X5X5X5X5X5X5X5X5X5X5X5X5X5X5X5X5X5X5X5X5X5X",
"5X5X5X5X5X5X5X5X5X5X5X5X5X5X                  O.;X*XOX X!           5X5X5X5X5X5X5X5X5X5X5X5X5X5X5X5X5X5X5X5X5X5X5X5X5X5X5X5X5X5X",
"5X5X5X5X5X5X5X5X5X5X5X5X5X    . 6 6 - = =     r O.~ ! ! 7         5X5X5X5X5X5X5X5X5X5X5X5X5X5X5X5X5X5X5X5X5X5X5X5X5X5X5X5X5X5X5X",
"5X5X5X5X5X5X5X5X5X5X5X5X5X    . 9 P e w w .                   5X5X5X5X5X5X5X5X5X5X5X5X5X5X5X5X5X5X5X5X5X5X5X5X5X5X5X5X5X5X5X5X5X",
"5X5X5X5X5X5X5X5X5X5X5X5X5X    o 0 P t w 8 . .                 5X5X5X5X5X5X5X5X5X5X5X5X5X5X5X5X5X5X5X5X5X5X5X5X5X5X5X5X5X5X5X5X5X",
"5X5X5X5X5X5X5X5X5X5X5X5X5X    o 0 P y t t w 8 =           5X5X5X5X5X5X5X5X5X5X5X5X5X5X5X5X5X5X5X5X5X5X5X5X5X5X5X5X5X5X5X5X5X5X5X",
"5X5X5X5X5X5X5X5X5X5X5X5X5X    o t P P P P w w =           5X5X5X5X5X5X5X5X5X5X5X5X5X5X5X5X5X5X5X5X5X5X5X5X5X5X5X5X5X5X5X5X5X5X5X",
"5X5X5X5X5X5X5X5X5X5X5X5X5X5X  . ; 6 6 6 ; - = O 5X      5X5X5X5X5X5X5X5X5X5X5X5X5X5X5X5X5X5X5X5X5X5X5X5X5X5X5X5X5X5X5X5X5X5X5X5X",
"5X5X5X5X5X5X5X5X5X5X5X5X5X5X5X5X              5X5X5X5X5X5X5X5X5X5X5X5X5X5X5X5X5X5X5X5X5X5X5X5X5X5X5X5X5X5X5X5X5X5X5X5X5X5X5X5X5X",
"5X5X5X5X5X5X5X5X5X5X5X5X5X5X5X5X              5X5X5X5X5X5X5X5X5X5X5X5X5X5X5X5X5X5X5X5X5X5X5X5X5X5X5X5X5X5X5X5X5X5X5X5X5X5X5X5X5X",
"5X5X5X5X5X5X5X5X5X5X5X5X5X5X5X5X5X5X5X5X5X5X5X5X5X5X5X5X5X5X5X5X5X5X5X5X5X5X5X5X5X5X5X5X5X5X5X5X5X5X5X5X5X5X5X5X5X5X5X5X5X5X5X5X",
"5X5X5X5X5X5X5X5X5X5X5X5X5X5X5X5X5X5X5X5X5X5X5X5X5X5X5X5X5X5X5X5X5X5X5X5X5X5X5X5X5X5X5X5X5X5X5X5X5X5X5X5X5X5X5X5X5X5X5X5X5X5X5X5X",
"5X5X5X5X5X5X5X5X5X5X5X5X5X5X5X5X5X5X5X5X5X5X5X5X5X5X5X5X5X5X5X5X5X5X5X5X5X5X5X5X5X5X5X5X5X5X5X5X5X5X5X5X5X5X5X5X5X5X5X5X5X5X5X5X",
"5X5X5X5X5X5X5X5X5X5X5X5X5X5X5X5X5X5X5X5X5X5X5X5X5X5X5X5X5X5X5X5X5X5X5X5X5X5X5X5X5X5X5X5X5X5X5X5X5X5X5X5X5X5X5X5X5X5X5X5X5X5X5X5X"
};
