/* XPM */
static char *result[] = {
/* columns rows colors chars-per-pixel */
"64 64 197 2 ",
"   c #000101",
".  c #0A0504",
"X  c #020C05",
"o  c #0E0806",
"O  c #0A0A0A",
"+  c #120D09",
"@  c #120C07",
"#  c #061105",
"$  c #051F06",
"%  c #081807",
"&  c #1A1B01",
"*  c #19120A",
"=  c #181411",
"-  c #1B1815",
";  c #1A1B1D",
":  c #24140C",
">  c #381F0F",
",  c #241411",
"<  c #2A1B11",
"1  c #381F10",
"2  c #062107",
"3  c #072409",
"4  c #072A0C",
"5  c #112A0D",
"6  c #0B3D0B",
"7  c #083C14",
"8  c #053C14",
"9  c #113D16",
"0  c #15370D",
"q  c #20210C",
"w  c #24201D",
"e  c #3A2111",
"r  c #3A2816",
"t  c #3C3D15",
"y  c #172738",
"u  c #43251D",
"i  c #48291D",
"p  c #45361E",
"a  c #55361F",
"s  c #6A3B1D",
"d  c #643C1E",
"f  c #713E1D",
"g  c #4B2B22",
"h  c #533E22",
"j  c #653921",
"k  c #733E20",
"l  c #783E20",
"z  c #0C420D",
"x  c #14430E",
"c  c #134C0F",
"v  c #0A4113",
"b  c #0E4A11",
"n  c #0B4E18",
"m  c #134D10",
"M  c #1C4B17",
"N  c #0F5E1B",
"B  c #135515",
"V  c #224D18",
"C  c #205315",
"Z  c #26541A",
"A  c #0F611C",
"S  c #11611B",
"D  c #27731B",
"F  c #2A781D",
"G  c #327A1D",
"H  c #256E1A",
"J  c #135129",
"K  c #2B5423",
"L  c #275524",
"P  c #3C5E23",
"I  c #0E6C24",
"U  c #0E6227",
"Y  c #0E7225",
"T  c #0E7C2A",
"R  c #0C7C26",
"E  c #107526",
"W  c #107827",
"Q  c #107C29",
"!  c #1C7726",
"~  c #207928",
"^  c #5D481F",
"/  c #6A401E",
"(  c #73401F",
")  c #554E2E",
"_  c #415C24",
"`  c #5D4A38",
"'  c #6C4A21",
"]  c #6C4224",
"[  c #754221",
"{  c #784522",
"}  c #764C24",
"|  c #6A5139",
" . c #516A21",
".. c #5A7525",
"X. c #4E6825",
"o. c #33485F",
"O. c #304E6C",
"+. c #077B7A",
"@. c #737E4E",
"#. c #6F6D4F",
"$. c #536E5D",
"%. c #83561D",
"&. c #817E03",
"*. c #85572C",
"=. c #8B5D31",
"-. c #835431",
";. c #936C37",
":. c #8F713B",
">. c #9F753E",
",. c #94723A",
"<. c #8C6633",
"1. c #A1773F",
"2. c #A2793F",
"3. c #A47B41",
"4. c #AA7F43",
"5. c #A77D58",
"6. c #817561",
"7. c #18842A",
"8. c #348922",
"9. c #2A9129",
"0. c #3A9325",
"q. c #3B9A26",
"w. c #379627",
"e. c #288C27",
"r. c #3DA329",
"t. c #3FA92A",
"y. c #7B8A1F",
"u. c #409626",
"i. c #469A28",
"p. c #429528",
"a. c #718E36",
"s. c #749138",
"d. c #6E903A",
"f. c #41A529",
"g. c #43A92A",
"h. c #54AB2A",
"j. c #64AD29",
"k. c #608F4B",
"l. c #78C873",
"z. c #AE9512",
"x. c #BDA10E",
"c. c #839F39",
"v. c #AE893A",
"b. c #AB843E",
"n. c #B18D3C",
"m. c #90B22F",
"M. c #D4BE21",
"N. c #CDB622",
"B. c #A0D214",
"V. c #B9C71B",
"C. c #93C715",
"Z. c #CDCD00",
"A. c #E8DF0A",
"S. c #E7E702",
"D. c #F6F207",
"F. c yellow",
"G. c #F1F403",
"H. c #ECD12A",
"J. c #AD844A",
"K. c #BE9145",
"L. c #BA9569",
"P. c #AC9670",
"I. c #BD9771",
"U. c #B58F6A",
"Y. c #BEA678",
"T. c #D2A64E",
"R. c #D1A64F",
"E. c #E3AD55",
"W. c #C4A06F",
"Q. c #C3A27B",
"!. c #C99A4A",
"~. c #037E89",
"^. c #7AB085",
"/. c #0EA2D0",
"(. c #00B0EA",
"). c #00BDFF",
"_. c #08ADED",
"`. c #998782",
"'. c #9BACBD",
"]. c #9B999D",
"[. c #C3A982",
"{. c #D5B487",
"}. c #DCBB92",
"|. c #8BC198",
" X c #81E182",
".X c #DFC8A4",
"XX c #E5CDA3",
"oX c #E7D4AC",
"OX c #F2D7AF",
"+X c #F7DCB2",
"@X c #FEE4BB",
"#X c #CDD2CC",
"$X c #FFEAC1",
"%X c #FFF0C5",
"&X c #E9EBE9",
"*X c white",
"=X c None",
/* pixels */
"=X=X=X=X=X=X=X=X=X=X=X=X=X=X=X=X=X=X=X=X=X=X=X=X=X=X=X=X=X=X=X=X=X=X=X=X=X=X=X=X=X=X=X=X=X=X=X=X=X=X=X=X=X=X=X=X=X=X=X=X=X=X=X=X",
"=X=X=X=X=X=X=X=X=X=X=X=X=X=X=X=X=X=X=X=X=X=X=X=X=X=X=X=X=X=X=X=X=X=X=X=X=X=X=X=X=X=X=X=X=X=X=X=X=X=X=X=X=X=X=X=X=X=X=X=X=X=X=X=X",
"=X=X=X=X=X=X=X=X=X=X=X=X=X=X=X=X=X=X=X=X=X=X=X=X=X=X=X=X=X=X=X=X=X=X=X=X=X=X=X=X=X=X=X=X=X=X=X=X=X=X=X=X=X=X=X=X=X=X=X=X=X=X=X=X",
"=X=X=X=X=X=X=X=X=X=X=X=X=X=X=X=X=X=X=X=X=X=X=X=X=X=X=X=X=X=X=X=X=X=X=X=X=X=X=X=X=X=X=X=X=X=X=X=X=X=X=X=X=X=X=X=X=X=X=X=X=X=X=X=X",
"=X=X=X=X=X=X=X=X=X=X=X=X=X=X=X=X=X=X=X=X=X=X=X=X=X=X=X=X=X=X=X=X=X=X=X=X=X=X=X=X=X=X=X=X=X=X=X=X=X=X=X=X=X=X=X=X=X=X=X=X=X=X=X=X",
"=X=X=X=X=X=X=X=X=X=X=X=X=X=X=X=X=X=X=X=X=X=X=X=X=X=X=X=X=X=X=X=X=X=X=X=X=X=X=X=X=X=X=X=X=X=X=X=X=X=X=X=X=X=X=X=X=X=X=X=X=X=X=X=X",
"=X=X=X=X=X=X=X=X=X=X=X=X=X=X=X=X=X=X=X=X=X=X=X=X=X=X=X=X[ =.4.3.3.3.3.3.>.} [ =X=X=X=X=X=X=X=X=X=X=X=X=X=X=X=X=X=X=X=X=X=X=X=X=X",
"=X=X=X=X=X=X=X=X=X=X=X=X=X=X=X=X=X=X=X=X=X=X=X=X=X=X=X[ s =.3.3.3.3.3.3.>.{ k [ =X=X=X=X=X=X=X=X=X=X=X=X=X=X=X=X=X=X=X=X=X=X=X=X",
"=X=X=X=X=X=X=X=X=X=X=X=X=X=X=X=X=X=X=X=X=X=X=X=X=X=X=X%.-.;.v.v.v.v.b.3.>.} [ *.=X=X=X=X=X=X=X=X=X=X=X=X=X=X=X=X=X=X=X=X=X=X=X=X",
"=X=X=X=X=X=X=X=X=X=X=X=X=X=X=X=X=X=X=X=X=X=X=X=X=X  * K.!.H.D.D.D.D.N.3.3.3.>.N.F.D.v.3.=X=X=X=X=X=X=X=X=X=X=X=X=X=X=X=X=X=X=X=X",
"=X=X=X=X=X=X=X=X=X=X=X=X=X=X=X=X=X=X=X=X=X=X=X=X=X  * !.E.H.F.F.F.F.M.3.3.3.3.M.F.D.v.3.=X=X=X=X=X=X=X=X=X=X=X=X=X=X=X=X=X=X=X=X",
"=X=X=X=X=X=X=X=X=X=X=X=X=X=X=X=X=X=X=X=X=X=X=X=X0 C K c.m.m.B.B.B.B.m.a.a.a.d.V.F.G.v.3.3.=X=X=X=X=X=X=X=X=X=X=X=X=X=X=X=X=X=X=X",
"=X=X=X=X=X=X=X=X=X=X=X=X=X=X=X=X=X=X=X=X=X=X    C g.g.f.r.f.f.r.r.r.f.f.f.r.r.B.F.G.v.3.3.3.3.=X=X=X=X=X=X=X=X=X=X=X=X=X=X=X=X=X",
"=X=X=X=X=X=X=X=X=X=X=X=X=X=X=X=X=X=X=X=X=X=X% # C q.u.q.q.q.q.q.q.q.q.q.q.q.q.C.G.S.n.4.v.v.v.=X=X=X=X=X=X=X=X=X=X=X=X=X=X=X=X=X",
"=X=X=X=X=X=X=X=X=X=X=X=X=X=X=X=X=X=X=X=X  # 8.0.H c m m m m m m m m c m m c c G h.j.R.T.H.D.A.%.k =X=X=X=X=X=X=X=X=X=X=X=X=X=X=X",
"=X=X=X=X=X=X=X=X=X=X=X=X=X=X=X=X=X=X=X=X  O 0.g.D 6 z 6 6 z 6 z 6 z 6 6 z 6 z D t.h.R.E.H.F.D.%.k k =X=X=X=X=X=X=X=X=X=X=X=X=X=X",
"=X=X=X=X=X=X=X=X=X=X=X=X=X=X=X=X=X=X=X4 7 v H D D D D D D D D D D D D D D D D D D G d.s.y.&...=.=.=.=X=X=X=X=X=X=X=X=X=X=X=X=X=X",
"=X=X=X=X=X=X=X=X=X=X=X=X=X=X=X=X=X    7 7.W b 6 D f.f.f.f.f.f.g.f.f.g.f.f.g.g.D 6 z E R 8   * ;.J.3.=X=X=X=X=X=X=X=X=X=X=X=X=X=X",
"=X=X=X=X=X=X=X=X=X=X=X=X=X=X=X=X=X    7 Y I B c F f.f.f.f.f.f.f.f.f.f.f.f.f.f.F m B Y E 7   * ;.4.=X=X=X=X=X=X=X=X=X=X=X=X=X=X=X",
"=X=X=X=X=X=X=X=X=X=X=X=X=X=X=X=X=X    3 b B 8.q.r.r.f.f.f.f.f.f.f.f.f.f.f.f.f.q.q.8.B b 2   . =X=X=X=X=X=X=X=X=X=X=X=X=X=X=X=X=X",
"=X=X=X=X=X=X=X=X=X=X=X=X=X=X=X=X=X    2 z m q.g.f.f.r.f.f.f.f.f.f.f.f.f.f.f.f.g.g.q.m z 2     =X=X=X=X=X=X=X=X=X=X=X=X=X=X=X=X=X",
"=X=X=X=X=X=X=X=X=X=X=X=X=XJ.I.=XP.5 $ v A A D D 8.f.r.i.f.f.f.f.f.f.f.f.f.f.r.8.D D N N v $ 5 P.=XI.3.=X=X=X=X=X=X=X=X=X=X=X=X=X",
"=X=X=X=X=X=X=X=X=X=X=X=X>.J.L.{.Y.Z z N 7.Y z 6 D f.f.f.f.f.f.r.f.f.f.f.f.r.g.D 6 b W Q N z Z Y.{.L.2.3.=X=X=X=X=X=X=X=X=X=X=X=X",
"=X=X=X=X=X=X=X=X=X=X=X=XJ.J.W.}.[.V z N Q W b b D g.f.f.f.f.f.f.f.f.f.f.f.f.f.D b b E W N z Z Q.}.W.J.J.=X=X=X=X=X=X=X=X=X=X=X=X",
"=X=X=X=X=X=X=X=X=X=X( -.XX+X@X@XXXZ z A R W E E e.f.f.f.f.f.f.f.f.f.f.f.f.f.f.e.E E W Q A 6 Z XX@X@X+XXX-.( =X=X=X=X=X=X=X=X=X=X",
"=X=X=X=X=X=X=X=X=X( ( -.OX$X%X%XoXZ 6 N Q Q W T 9.f.f.f.f.f.f.f.i.r.i.f.f.g.f.9.Q Q Q Q A z L oX%X@X$X+X} ( [ =X=X=X=X=X=X=X=X=X",
"=X=X=X=X=X=X=X=X=X=Xk -.U.L.W.Q.Y.V z A Q W A N ! 9.9.r.f.f.f.f.f.f.r.f.r.9.9.! N S T T N v V Y.Q.Q.I.U.-.k =X=X=X=X=X=X=X=X=X=X",
"=X=X=X=X=X=X=X=X=X=X=X=Xf s =.2.;.V 6 N Q E b z N T 7.q.f.f.f.f.f.f.r.f.r.Q W N 6 b Y T N z M ,.b.=.f s =X=X=X=X=X=X=X=X=X=X=X=X",
"=X=X=X=X=X=X=X=X=X=X=X=X[ f =.>.:.J J U E I z 6 N T Q q.f.f.f.f.f.f.r.r.w.7.Q N 6 z A R U n J :.1.=.k [ =X=X=X=X=X=X=X=X=X=X=X=X",
"=X=X=X=X=X=X=X=X=X=X=X=X=X=X{ { | /.(.+.z 6 #   v T Q 7.Q 9.f.f.f.f.9.Q 7.W Q v   X z z +.(./.| { { =X=X=X=X=X=X=X=X=X=X=X=X=X=X",
"=X=X=X=X=X=X=X=X=X=X=X=X=X=X=X( | _.).~.6 0 X   7 Q T Q T 9.f.f.f.f.9.T Q T 7.7   X 6 6 ~.)._.| [ =X=X=X=X=X=X=X=X=X=X=X=X=X=X=X",
"=X=X=X=X=X=X=X=X=X=X=X=X=X=Xe e p l. Xk.V p .   7 Q Q W Q 7.e.9.9.9.7.Q W T T 7     t ^ k. Xl.p 1 e =X=X=X=X=X=X=X=X=X=X=X=X=X=X",
"=X=X=X=X=X=X=X=X=X=X=X=X=X=X    & S.F.x.k s o   7 Q T Q Q W T T T T W Q W Q Q 7   o s k x.F.S.&     =X=X=X=X=X=X=X=X=X=X=X=X=X=X",
"=X=X=X=X=X=X=X=X=X=X=X=X=X=X=X  & Z.S.z.{ s o   7 W E W Q Q Q W Q Q Q Q W E W 7   o ] { z.S.Z.&   =X=X=X=X=X=X=X=X=X=X=X=X=X=X=X",
"=X=X=X=X=X=X=X=X=X=X=X=X=X=X=X=X=X& & ^ 1.<.+   3 b n E Q T W Q W Q Q Q E n b 3   + <.1.^ & & =X=X=X=X=X=X=X=X=X=X=X=X=X=X=X=X=X",
"=X=X=X=X=X=X=X=X=X=X=X=X=X=X=X=X=X    h J.,.+   2 z b E Q W Q Q Q Q W Q E b z 2   + ;.J.h     =X=X=X=X=X=X=X=X=X=X=X=X=X=X=X=X=X",
"=X=X=X=X=X=X=X=X=X=X=X=X=X=X=X=X=X=X=Xr h p .   # 2 4 I Q Q Q Q W Q W Q Y 4 2 #   . p ) e =X=X=X=X=X=X=X=X=X=X=X=X=X=X=X=X=X=X=X",
"=X=X=X=X=X=X=X=X=X=X=X=X=X=X=X=X=X=X=X=X            X I Q W Q T Q T Q Q I X             =X=X=X=X=X=X=X=X=X=X=X=X=X=X=X=X=X=X=X=X",
"=X=X=X=X=X=X=X=X=X=X=X=X=X=X=X=X=X=X=XX X X X       X I E W W Q T Q W E I X     X   X X X =X=X=X=X=X=X=X=X=X=X=X=X=X=X=X=X=X=X=X",
"=X=X=X=X=X=X=X=X=X=X=X=X=X=X=X=X=X    7 I I v 6 3     v b S Q Q Q Q A b 6 X   $ 6 z U Y 7     =X=X=X=X=X=X=X=X=X=X=X=X=X=X=X=X=X",
"=X=X=X=X=X=X=X=X=X=X=X=X=X=X=X=X=X    8 I I z z $     6 z S Q W Q Q A v 6     2 v b Y R 8     =X=X=X=X=X=X=X=X=X=X=X=X=X=X=X=X=X",
"=X=X=X=X=X=X=X=X=X=X=X=X=X=X=X  . , : $.|.^.M b v 7 7 2 $ n Q Q T Q n $ 3 7 8 v z M ^.|.$.y y O   =X=X=X=X=X=X=X=X=X=X=X=X=X=X=X",
"=X=X=X=X=X=X=X=X=X=X=X=X=X=X    . u i ].*X&XL 6 A Q E X   7 Q Q Q Q 7   X E 7.N z L &X*X'.O.O.O     =X=X=X=X=X=X=X=X=X=X=X=X=X=X",
"=X=X=X=X=X=X=X=X=X=X=X=X=X=X. o @ u i P.&X#XK x S T I X   7 W E E W 7   X I Q N x K #X&X'.O.o.+ . . =X=X=X=X=X=X=X=X=X=X=X=X=X=X",
"=X=X=X=X=X=X=X=X=X=X=X=X    e s d k ] i ; w j j P Q I X   3 b b b b 3   X I Q P s j ; - p ] ] j s 1     =X=X=X=X=X=X=X=X=X=X=X=X",
"=X=X=X=X=X=X=X=X=X=X=X=X    > ( s f ( >   . s { P 7.I X   2 x z z z 2   X I T _ k s .   > f ( s k e     =X=X=X=X=X=X=X=X=X=X=X=X",
"=X=X=X=X=X=X=X=X=X=X=X=X    ` I.L.5.5.) 2 5  ...X.P _ u e 5 2 2 2 2 q 1 e _ _ X... .5 $ ) 5.5.L.I.`     =X=X=X=X=X=X=X=X=X=X=X=X",
"=X=X=X=X=X=X=X=X=X=X=X=X    6.%X@X}.}.@.z m q.r...l l l f e         e { { f [ ..g.q.m z @.}.}.@X%X6.    =X=X=X=X=X=X=X=X=X=X=X=X",
"=X=X=X=X=X=X=X=X=X=X=X=X    #.oX.X[.Q.#.6 b q.f...( ' ' } t # # # # r ' } ' ' ..f.q.z 6 #.[.[..XoX#.    =X=X=X=X=X=X=X=X=X=X=X=X",
"=X=X=X=X=X=X=X=X=X=X=X=X=X=X- , - - = O   % 0.f.f.i.i.i.i.0.0.0.0.0.i.i.i.i.i.f.f.0.%   X = = ; , - =X=X=X=X=X=X=X=X=X=X=X=X=X=X",
"=X=X=X=X=X=X=X=X=X=X=X=X=X=X              X q.f.f.f.f.f.f.f.f.r.f.f.t.r.f.f.g.f.f.0.#               =X=X=X=X=X=X=X=X=X=X=X=X=X=X",
"=X=X=X=X=X=X=X=X=X=X=X=X=X=X=X        + , , M C D e.9.r.f.f.f.f.f.f.f.f.r.9.e.D V M < , +         =X=X=X=X=X=X=X=X=X=X=X=X=X=X=X",
"=X=X=X=X=X=X=X=X=X=X=X=X=X=X=X=X=X    , g g .   7 T Q r.g.g.f.r.f.f.f.f.r.7.Q 7   . u g ,     =X=X=X=X=X=X=X=X=X=X=X=X=X=X=X=X=X",
"=X=X=X=X=X=X=X=X=X=X=X=X=X=X=X=X=X    , u r o . 7 ! ~ p.i.q.0.0.0.0.u.i.p.! ~ 9 . o e g ,     =X=X=X=X=X=X=X=X=X=X=X=X=X=X=X=X=X",
"=X=X=X=X=X=X=X=X=X=X=X=X=X=X=X=X=X=X=XO . o 1 g a ] / ' } r # # # # r ' ' ' ] g g 1 o . . =X=X=X=X=X=X=X=X=X=X=X=X=X=X=X=X=X=X=X",
"=X=X=X=X=X=X=X=X=X=X=X=X=X=X=X=X=X=X=X      u g j { { ( { e         e [ [ [ l h g u .     =X=X=X=X=X=X=X=X=X=X=X=X=X=X=X=X=X=X=X",
"=X=X=X=X=X=X=X=X=X=X=X=X=X=X=X=X=X=X=X=X  . , , < e e e e , =X    =X: e e e e < , , .   =X=X=X=X=X=X=X=X=X=X=X=X=X=X=X=X=X=X=X=X",
"=X=X=X=X=X=X=X=X=X=X=X=X=X=X=X=X=X=X=X=X=X=X              =X=X=X=X=X=X              =X=X=X=X=X=X=X=X=X=X=X=X=X=X=X=X=X=X=X=X=X=X",
"=X=X=X=X=X=X=X=X=X=X=X=X=X=X=X=X=X=X=X=X=X=X              =X=X=X=X=X=X              =X=X=X=X=X=X=X=X=X=X=X=X=X=X=X=X=X=X=X=X=X=X",
"=X=X=X=X=X=X=X=X=X=X=X=X=X=X=X=X=X=X=X=X=X=X=X=X=X=X=X=X=X=X=X=X=X=X=X=X=X=X=X=X=X=X=X=X=X=X=X=X=X=X=X=X=X=X=X=X=X=X=X=X=X=X=X=X",
"=X=X=X=X=X=X=X=X=X=X=X=X=X=X=X=X=X=X=X=X=X=X=X=X=X=X=X=X=X=X=X=X=X=X=X=X=X=X=X=X=X=X=X=X=X=X=X=X=X=X=X=X=X=X=X=X=X=X=X=X=X=X=X=X",
"=X=X=X=X=X=X=X=X=X=X=X=X=X=X=X=X=X=X=X=X=X=X=X=X=X=X=X=X=X=X=X=X=X=X=X=X=X=X=X=X=X=X=X=X=X=X=X=X=X=X=X=X=X=X=X=X=X=X=X=X=X=X=X=X",
"=X=X=X=X=X=X=X=X=X=X=X=X=X=X=X=X=X=X=X=X=X=X=X=X=X=X=X=X=X=X=X=X=X=X=X=X=X=X=X=X=X=X=X=X=X=X=X=X=X=X=X=X=X=X=X=X=X=X=X=X=X=X=X=X",
"=X=X=X=X=X=X=X=X=X=X=X=X=X=X=X=X=X=X=X=X=X=X=X=X=X=X=X=X=X=X=X=X=X=X=X=X=X=X=X=X=X=X=X=X=X=X=X=X=X=X=X=X=X=X=X=X=X=X=X=X=X=X=X=X"
};
