/* XPM */
static char *result[] = {
/* columns rows colors chars-per-pixel */
"64 64 208 2 ",
"   c #000001",
".  c #0B0604",
"X  c #020C05",
"o  c #0B0A08",
"O  c #150B09",
"+  c #071707",
"@  c #16120F",
"#  c #181716",
"$  c #091713",
"%  c #371D0D",
"&  c #251511",
"*  c #291A11",
"=  c #361F10",
"-  c #391F10",
";  c #21120F",
":  c #073B09",
">  c #073D15",
",  c #083C15",
"<  c #073713",
"1  c #0F300E",
"2  c #3B2211",
"3  c #372912",
"4  c #363019",
"5  c #172839",
"6  c #292622",
"7  c #45261D",
"8  c #47291A",
"9  c #4B3A1D",
"0  c #6B3B1D",
"q  c #66391C",
"w  c #723E1D",
"e  c #703B17",
"r  c #4D2A21",
"t  c #553A20",
"y  c #4F3329",
"u  c #663B22",
"i  c #753E20",
"p  c #0B4615",
"a  c #164814",
"s  c #124D12",
"d  c #3D4417",
"f  c #215215",
"g  c #244C1D",
"h  c #28701B",
"j  c #285621",
"k  c #0E6E25",
"l  c #0D6321",
"z  c #0E7B29",
"x  c #0F7527",
"c  c #1B7528",
"v  c #127D29",
"b  c #187527",
"n  c #1A6F25",
"m  c #22762B",
"M  c #267B3B",
"N  c #68421E",
"B  c #73401F",
"V  c #765A1E",
"C  c #7E7B05",
"Z  c #5A462B",
"A  c #415E25",
"S  c #514A2A",
"D  c #694721",
"F  c #6B4723",
"G  c #744321",
"H  c #784523",
"J  c #7D4D2B",
"K  c #774C26",
"L  c #675124",
"P  c #73592A",
"I  c #7B5C3B",
"U  c #4B6628",
"Y  c #587525",
"T  c #2D4E6F",
"R  c #554B5C",
"E  c #554D4D",
"W  c #685844",
"Q  c #766A55",
"!  c #706853",
"~  c #7C7978",
"^  c #405B75",
"/  c #83541C",
"(  c #807E00",
")  c #814D26",
"_  c #82522A",
"`  c #885B24",
"'  c #8B5D31",
"]  c #865835",
"[  c #9D733D",
"{  c #957A3E",
"}  c #916D35",
"|  c #A4773D",
" . c #9E7A44",
".. c #937650",
"X. c #A17643",
"o. c #A47A41",
"O. c #A97D43",
"+. c #A37954",
"@. c #A17751",
"#. c #817460",
"$. c #14812A",
"%. c #1C8529",
"&. c #258526",
"*. c #2B8A26",
"=. c #279129",
"-. c #299029",
";. c #399727",
":. c #258134",
">. c #3DA129",
",. c #489429",
"<. c #748E36",
"1. c #759234",
"2. c #42A629",
"3. c #46A62A",
"4. c #298C41",
"5. c #7F997B",
"6. c #85B915",
"7. c #9A803F",
"8. c #AB853A",
"9. c #AE893A",
"0. c #A88237",
"q. c #B28B3B",
"w. c #B79734",
"e. c #BD9A2D",
"r. c #A9A519",
"t. c #D2BD21",
"y. c #CAAD2E",
"u. c #9BCA18",
"i. c #A0D214",
"p. c #D7D113",
"a. c #E6DD0B",
"s. c #EDE40D",
"d. c #F3EC03",
"f. c #F2E90F",
"g. c #F6F206",
"h. c #FFFE00",
"j. c #FEFA08",
"k. c #FAF407",
"l. c #EAF107",
"z. c #D5C021",
"x. c #EDD428",
"c. c #E8CF28",
"v. c #AC834C",
"b. c #B38C48",
"n. c #B58F55",
"m. c #80AE40",
"M. c #9C8A77",
"N. c #BD9766",
"B. c #B9946E",
"V. c #BB9A67",
"C. c #B89773",
"Z. c #B38E69",
"A. c #C1934B",
"S. c #C89D45",
"D. c #D5A54A",
"F. c #DDAA53",
"G. c #DCB047",
"H. c #E2B54A",
"J. c #E6BA48",
"K. c #E1AE53",
"L. c #E6B256",
"P. c #C8A67C",
"I. c #85D47C",
"U. c #005C81",
"Y. c #2C4E9B",
"T. c #335298",
"R. c #435E9E",
"E. c #48619D",
"W. c #4C6690",
"Q. c #757996",
"!. c #4764A6",
"~. c #5A6FA1",
"^. c #7FDF82",
"/. c #00BDFF",
"(. c #16B8F3",
"). c #818183",
"_. c #AE9583",
"`. c #88A389",
"'. c #B9A58E",
"]. c #BDAC96",
"[. c #C0AE80",
"{. c #CDAA82",
"}. c #D0AE85",
"|. c #D6B48B",
" X c #D7B589",
".X c #DBBB92",
"XX c #C1AC8B",
"oX c #D7C39A",
"OX c #E4C69C",
"+X c #EBCEA5",
"@X c #E2CDAE",
"#X c #EDD3AA",
"$X c #F1D5AD",
"%X c #FADFB4",
"&X c #F6DDB7",
"*X c #E9D6BA",
"=X c #FEE6BC",
"-X c #FFE8BF",
";X c #FAE0B7",
":X c #99AAD0",
">X c #A3AFCC",
",X c #D2D8D8",
"<X c #FFEAC2",
"1X c #E9E1D7",
"2X c #FFFFFD",
"3X c #FFFAF1",
"4X c #EFF0ED",
"5X c None",
/* pixels */
"5X5X5X5X5X5X5X5X5X5X5X5X5X5X5X5X5X5X5X5X5X5X5X5X5X5X5X5X5X5X5X5X5X5X5X5X5X5X5X5X5X5X5X5X5X5X5X5X5X5X5X5X5X5X5X5X5X5X5X5X5X5X5X5X",
"5X5X5X5X5X5X5X5X5X5X5X5X5X5X5X5X5X5X5X5X5X5X5X5X5X5X5X5X5X5X5X5X5X5X5X5X5X5X5X5X5X5X5X5X5X5X5X5X5X5X5X5X5X5X5X5X5X5X5X5X5X5X5X5X",
"5X5X5X5X5X5X5X5X5X5X5X5X5X5X5X5X5X5X5X5X5X5X5X5X5X5X5X5X5X5X5X5X5X5X5X5X5X5X5X5X5X5X5X5X5X5X5X5X5X5X5X5X5X5X5X5X5X5X5X5X5X5X5X5X",
"5X5X5X5X5X5X5X5X5X5X5X5X5X5X5X5X5X5X5X5X5X5X5X5X5X  > v v v z v v z v z >   5X5X5X5X5X5X5X5X5X5X5X5X5X5X5X5X5X5X5X5X5X5X5X5X5X5X",
"5X5X5X5X5X5X5X5X5X5X5X5X5X5X5X5X5X5X5X5X5X5X5X5X    > z z z v v v z v v >     5X5X5X5X5X5X5X5X5X5X5X5X5X5X5X5X5X5X5X5X5X5X5X5X5X",
"5X5X5X5X5X5X5X5X5X5X5X5X5X5X5X5X5X5X5X5X5X5X5X5XX X p $.$.v v $.v v $.$.p X X 5X5X5X5X5X5X5X5X5X5X5X5X5X5X5X5X5X5X5X5X5X5X5X5X5X",
"5X5X5X5X5X5X5X5X5X5X5X5X5X5X5X5X5X5X5X5X5X5X  X l k :.>.>.;.>.>.;.>.>.>.&.k l X   5X5X5X5X5X5X5X5X5X5X5X5X5X5X5X5X5X5X5X5X5X5X5X",
"5X5X5X5X5X5X5X5X5X5X5X5X5X5X5X5X5X5X5X5X5X5X  X k v -.3.3.2.2.2.3.3.2.2.-.v k X   5X5X5X5X5X5X5X5X5X5X5X5X5X5X5X5X5X5X5X5X5X5X5X",
"5X5X5X5X5X5X5X5X5X5X5X5X5X5X5X5X5X5X5X5X5X1 > p x z %.-.-.-.-.-.-.-.-.-.%.z x p > 1 5X5X5X5X5X5X5X5X5X5X5X5X5X5X5X5X5X5X5X5X5X5X",
"5X5X5X5X5X5X5X5X5X5X5X5X5X5X5X5X5X5X5X    > z z z z v v x v z v x z v v z v v z $.>     5X5X5X5X5X5X5X5X5X5X5X5X5X5X5X5X5X5X5X5X",
"5X5X5X5X5X5X5X5X5X5X5X5X5X5X5X5X5X5X5XX X p $.$.v v v v v v $.$.v $.$.v v v v v %.p X X 5X5X5X5X5X5X5X5X5X5X5X5X5X5X5X5X5X5X5X5X",
"5X5X5X5X5X5X5X5X5X5X5X5X5X5X5X5X5X  X l k *.>.>.>.>.>.>.>.>.>.>.;.>.>.>.>.>.>.>.;.&.k l X   5X5X5X5X5X5X5X5X5X5X5X5X5X5X5X5X5X5X",
"5X5X5X5X5X5X5X5X5X5X5X5X5X5X5X5X    X k v -.2.>.2.>.>.>.>.2.2.>.>.2.>.>.3.>.>.>.2.=.z k X     5X5X5X5X5X5X5X5X5X5X5X5X5X5X5X5X5X",
"5X5X5X5X5X5X5X5X5X5X5X5X5X5X5X5X    X &.-.,.<.1.u.i.i.i.u.1.1.1.1.1.u.i.m.<.<.1.1.,.-.&.X     5X5X5X5X5X5X5X5X5X5X5X5X5X5X5X5X5X",
"5X5X5X5X5X5X5X5X5X5X5X5X5X5X5X5X5X  + ;.3.1.o.q.g.h.h.h.g.9.o.o.o.q.k.h.z.| | O.O.<.2.;.+   5X5X5X5X5X5X5X5X5X5X5X5X5X5X5X5X5X5X",
"5X5X5X5X5X5X5X5X5X5X5X5X5X5X5X5XX X + ,.,.<.o.9.g.h.k.g.s.w.9.8.o.9.d.h.z.9.q.| O.<.,.,.+ X X 5X5X5X5X5X5X5X5X5X5X5X5X5X5X5X5X5X",
"5X5X5X5X5X5X5X5X5X5X5X5X5X5X    , k c { 7.7.o.9.g.h.z.9.w.s.k.t.X.0.g.h.k.g.s.9.o.7.7.{ n k >     5X5X5X5X5X5X5X5X5X5X5X5X5X5X5X",
"5X5X5X5X5X5X5X5X5X5X5X5X5X5X    > $.c { o.o.X.9.g.h.t. .9.d.j.t.X.9.g.j.h.h.g.9.o.o.{ { c z p     5X5X5X5X5X5X5X5X5X5X5X5X5X5X5X",
"5X5X5X5X5X5X5X5X5X5Xo.N.5XC.8 - 4 U U b.A.y.t.z.x.c.c.t.t.t.t.t.t.t.x.x.z.z.t.t.t.e.o. .U U 4 2 8 C.5XN.o.5X5X5X5X5X5X5X5X5X5X5X",
"5X5X5X5X5X5X5X5X5Xo.o.N.|.P.J w G B K D.F.x.h.j.K.F.x.h.k.q.X.t.h.j.H.K.A.o.8.g.h.z.o.[ H i G G J P.|.N.o.O.5X5X5X5X5X5X5X5X5X5X",
"5X5X5X5X5X5X5X5X5X| [ N.oX}.' ] J G ` D.H.x.g.f.J.H.c.g.s.| O.t.h.j.G.F.A.v.b.s.g.t.9.0.J H K ] ' |..XV.[ | 5X5X5X5X5X5X5X5X5X5X",
"5X5X5X5X5X5X5X5X5XH H B.=X;X$X$XP.[ 0.d.j.z.8.w.f.j.z.9.q.| O.t.h.d.q.O.N.|.P.9.8.t.g.s.0.[ P.$X$X;X=XB.H H 5X5X5X5X5X5X5X5X5X5X",
"5X5X5X5X5X5X5X5X5XG 0 B.<X<X-X-XP.| 9.g.h.t.X.8.g.h.t. .X.X.| z.h.g.v.| N. X}.v. .t.h.g.9.| P.-X-X<X<XB.0 G 5X5X5X5X5X5X5X5X5X5X",
"5X5X5X5X5X5X5X5X5X5X5X+.B.C.OX#XV.' } y.t.y.A.S.g.h.a.t.t.S.A.e.r.r.A.N.}.+XOXv.o.y.x.c.9.| P.#XOXC.C.+.5X5X5X5X5X5X5X5X5X5X5X5X",
"5X5X5X5X5X5X5X5X5X5X5X5Xw J P.|.+.u G [ X.A.L.H.j.h.h.h.j.J.K.| u J {.|.+X-X%Xv.| A.K.F.| O.N..X{.J B 5X5X5X5X5X5X5X5X5X5X5X5X5X",
"5X5X5X5X5X5X5X5X5X5X5X5XB J ].].v./ ` [ [ b.K.H.f.j.g.g.f.D.D.| J ] {..X+X-X$Xn.v.b.D.S.q.9.V.XX'.J B 5X5X5X5X5X5X5X5X5X5X5X5X5X",
"5X5X5X5X5X5X5X5X5X5X5X5X5X5X(.(.I.d.a./ B | K.K.K.H.y.9.0._ ) +.{.}.$X%X=X-X;X X}.+.J ` a.d.I.(.(.5X5X5X5X5X5X5X5X5X5X5X5X5X5X5X",
"5X5X5X5X5X5X5X5X5X5X5X5X5X5X/./.^.h.d./ w | L.K.K.K.A.o.| G e +..X.X%X<X-X-X=X.X.X+.w / d.j.^././.5X5X5X5X5X5X5X5X5X5X5X5X5X5X5X",
"5X5X5X5X5X5X5X5X5X5X5X5X5X5XT U.1.j.g.} ' ` L P b.S.| ' ' +.+.{.+X+X+X+X}.B.Z.! W I ' } d.h.1.U.U.5X5X5X5X5X5X5X5X5X5X5X5X5X5X5X",
"5X5X5X5X5X5X5X5X5X5X5X5X5X5X    1.j.g.q.v.t   o } O.' w J {.|.+X<X%X.X|.@.e q     t 8.q.g.h.6.    5X5X5X5X5X5X5X5X5X5X5X5X5X5X5X",
"5X5X5X5X5X5X5X5X5X5X5X5X5X5X    ( j.f.0.[ Z # 6 ..@.' w J {..X+X<X&X}.{.@.u u 6 # Z | 0.f.h.C     5X5X5X5X5X5X5X5X5X5X5X5X5X5X5X",
"5X5X5X5X5X5X5X5X5X5X5X5X5X5X    V J.D.) B _.4X,XE.T.R w ] +X%X=X=X$X] _ R T.E.,X4X_.B _ D.J.P     5X5X5X5X5X5X5X5X5X5X5X5X5X5X5X",
"5X5X5X5X5X5X5X5X5X5X5X5X5X5X    P L.D._ e '.2X4X!.Y.R e J $X=X=X=X#XJ e R Y.!.4X2X'.e ) D.L.P     5X5X5X5X5X5X5X5X5X5X5X5X5X5X5X",
"5X5X5X5X5X5X5X5X5X5X5X5X5X5X5X5Xy P L 2 % M.3X1X!.Y.Q.'.XX%X=X=X=X&X].'.Q.Y.!.1X3XM.% 2 L P y 5X5X5X5X5X5X5X5X5X5X5X5X5X5X5X5X5X",
"5X5X5X5X5X5X5X5X5X5X5X5X5X5X5X5X5X        Q <X*XR.Y.:X2X2X<X=X=X=X<X2X2X:XY.!.*X<X#.        5X5X5X5X5X5X5X5X5X5X5X5X5X5X5X5X5X5X",
"5X5X5X5X5X5X5X5X5X5X5X5X5X5X5X5X5X        Q %X@X~.R.>X2X3X<X<X=X=X<X3X2X>X!.~.@X;XQ         5X5X5X5X5X5X5X5X5X5X5X5X5X5X5X5X5X5X",
"5X5X5X5X5X5X5X5X5X5X5X5X5X5X5X5X5X5X5X    Z n.n.@X*X&X<X<X=X=X=X=X-X<X<X&X*X@Xn.b.Z     5X5X5X5X5X5X5X5X5X5X5X5X5X5X5X5X5X5X5X5X",
"5X5X5X5X5X5X5X5X5X5X5X5X5X5X5X5X5X5X5X    t O.v.$X<X<X<X<X<X=X=X=X=X-X=X<X<X%Xv.O.t     5X5X5X5X5X5X5X5X5X5X5X5X5X5X5X5X5X5X5X5X",
"5X5X5X5X5X5X5X5X5X5X5X5X5X5X5X5X5X  X > > S ' } Z.B.|.+X+X+X+X+X+X+X+XOX|.B.Z.} } S > < X   5X5X5X5X5X5X5X5X5X5X5X5X5X5X5X5X5X5X",
"5X5X5X5X5X5X5X5X5X5X5X5X5X5X5X5X    X k z A i i u i @.|.|.|.|.|. X X XoX+.0 w w w j $.k X     5X5X5X5X5X5X5X5X5X5X5X5X5X5X5X5X5X",
"5X5X5X5X5X5X5X5X5X5X5X5X5X5X5X5Xo o $ 4.4.U N N N N ..[.P.'.P.'.P.P.'.P...D D D B U 4.M + X   5X5X5X5X5X5X5X5X5X5X5X5X5X5X5X5X5X",
"5X5X5X5X5X5X5X5X5X5X5X5X5X5X    5 T T ,X4X5.: s n c :.:.:.&.=.:.:.=.:.:.m c n a : 5.4X,Xy r &     5X5X5X5X5X5X5X5X5X5X5X5X5X5X5X",
"5X5X5X5X5X5X5X5X5X5X5X5X5X5X    5 T W.4X2X`.p p x z $.z z z z z $.z z z z z k p : `.2X4Xy r &     5X5X5X5X5X5X5X5X5X5X5X5X5X5X5X",
"5X5X5X5X5X5X5X5X5X5X5X5X  . = = y E E ~ ).W d d b z z z z z z z $.z z z z z b d d W ).~ Z u 8 2 = o   5X5X5X5X5X5X5X5X5X5X5X5X5X",
"5X5X5X5X5X5X5X5X5X5X5X    . q G B w q .   = H N b v z z z z z z z z v v z $.c N B 2   . i i i G q .     5X5X5X5X5X5X5X5X5X5X5X5X",
"5X5X5X5X5X5X5X5X5X5X5X    o K J J ] K o X 3 K N m b c b b &.*.*.*.*.c c b b m L V 3 X O K ] _ J G o     5X5X5X5X5X5X5X5X5X5X5X5X",
"5X5X5X5X5X5X5X5X5X5X5X    @ B.P.oX$XoXg : h 3.,.N F N N V a.l.l.l.p./ D D F L ,.,.h : g oX$X.X{.C.@     5X5X5X5X5X5X5X5X5X5X5X5X",
"5X5X5X5X5X5X5X5X5X5X5X    @ P..X#X<X$Xf p h 2.,.L H B B V d.h.h.h.g./ B G w N ,.2.h : j *X<X#X.X[.@     5X5X5X5X5X5X5X5X5X5X5X5X",
"5X5X5X5X5X5X5X5X5X5X5X5X  @ W W Q #.! 1 + f =.-.Y Y U A U 1.i.6.6.6.U j U Y Y *.=.f + 1 ! #.Q W W @   5X5X5X5X5X5X5X5X5X5X5X5X5X",
"5X5X5X5X5X5X5X5X5X5X5X5X5X5X              > $.$.>.>.=.z z z x $.z z z z -.2.>.$.$.>               5X5X5X5X5X5X5X5X5X5X5X5X5X5X5X",
"5X5X5X5X5X5X5X5X5X5X5X5X5X5X              < k x >.>.=.v $.$.$.$.$.v $.$.-.>.;.x k <               5X5X5X5X5X5X5X5X5X5X5X5X5X5X5X",
"5X5X5X5X5X5X5X5X5X5X5X5X5X5X5X5X5X5X5X    X X + x $.-.>.>.>.>.;.>.>.>.>.-.$.x + X X     5X5X5X5X5X5X5X5X5X5X5X5X5X5X5X5X5X5X5X5X",
"5X5X5X5X5X5X5X5X5X5X5X5X5X5X5X5X5X5X5X        X k v -.3.>.2.2.2.2.2.2.3.-.z k X         5X5X5X5X5X5X5X5X5X5X5X5X5X5X5X5X5X5X5X5X",
"5X5X5X5X5X5X5X5X5X5X5X5X5X5X5X5X5X  o - = * & & , > a f f f f f f f f f a p > & & * 2 - .   5X5X5X5X5X5X5X5X5X5X5X5X5X5X5X5X5X5X",
"5X5X5X5X5X5X5X5X5X5X5X5X5X5X5X5X    . u G u r 7 .       X                     r r u H q .     5X5X5X5X5X5X5X5X5X5X5X5X5X5X5X5X5X",
"5X5X5X5X5X5X5X5X5X5X5X5X5X5X5X5X    . q i u r 7 . o                       . o 7 7 u H q o     5X5X5X5X5X5X5X5X5X5X5X5X5X5X5X5X5X",
"5X5X5X5X5X5X5X5X5X5X5X5X5X5X5X5X    o u G w i u 7 7 ;     5X5X5X5X5X    & 7 r u B G B q .     5X5X5X5X5X5X5X5X5X5X5X5X5X5X5X5X5X",
"5X5X5X5X5X5X5X5X5X5X5X5X5X5X5X5X    . 0 G G G F r r *     5X5X5X5X5X    & r r i G G H q .     5X5X5X5X5X5X5X5X5X5X5X5X5X5X5X5X5X",
"5X5X5X5X5X5X5X5X5X5X5X5X5X5X5X5X5X  . = 2 2 2 = * * O 5X5X5X5X5X5X5X5X5XO & * = 2 2 2 = o   5X5X5X5X5X5X5X5X5X5X5X5X5X5X5X5X5X5X",
"5X5X5X5X5X5X5X5X5X5X5X5X5X5X5X5X5X5X5X              5X5X5X5X5X5X5X5X5X5X5X              5X5X5X5X5X5X5X5X5X5X5X5X5X5X5X5X5X5X5X5X",
"5X5X5X5X5X5X5X5X5X5X5X5X5X5X5X5X5X5X5X              5X5X5X5X5X5X5X5X5X5X5X              5X5X5X5X5X5X5X5X5X5X5X5X5X5X5X5X5X5X5X5X",
"5X5X5X5X5X5X5X5X5X5X5X5X5X5X5X5X5X5X5X5X5X5X5X5X5X5X5X5X5X5X5X5X5X5X5X5X5X5X5X5X5X5X5X5X5X5X5X5X5X5X5X5X5X5X5X5X5X5X5X5X5X5X5X5X",
"5X5X5X5X5X5X5X5X5X5X5X5X5X5X5X5X5X5X5X5X5X5X5X5X5X5X5X5X5X5X5X5X5X5X5X5X5X5X5X5X5X5X5X5X5X5X5X5X5X5X5X5X5X5X5X5X5X5X5X5X5X5X5X5X",
"5X5X5X5X5X5X5X5X5X5X5X5X5X5X5X5X5X5X5X5X5X5X5X5X5X5X5X5X5X5X5X5X5X5X5X5X5X5X5X5X5X5X5X5X5X5X5X5X5X5X5X5X5X5X5X5X5X5X5X5X5X5X5X5X"
};
