/* XPM */
static char *result[] = {
/* columns rows colors chars-per-pixel */
"64 64 210 2 ",
"   c #000001",
".  c #0C0604",
"X  c #020D05",
"o  c #0D0905",
"O  c #110B08",
"+  c #061205",
"@  c #061F06",
"#  c #061507",
"$  c #191607",
"%  c #171310",
"&  c #171819",
"*  c #22150E",
"=  c #351E0F",
"-  c #281611",
";  c #371F11",
":  c #072107",
">  c #062C0E",
",  c #14270A",
"<  c #0C3D0C",
"1  c #0A350B",
"2  c #063D15",
"3  c #083D15",
"4  c #1B2F13",
"5  c #3A200F",
"6  c #3B2212",
"7  c #24201F",
"8  c #17293A",
"9  c #2D2825",
"0  c #44271D",
"q  c #6C3B1E",
"w  c #65381C",
"e  c #713E1E",
"r  c #4D2A21",
"t  c #523D24",
"y  c #4A3828",
"u  c #663B23",
"i  c #743E20",
"p  c #783E20",
"a  c #0D420D",
"s  c #12490F",
"d  c #0B4313",
"f  c #0D4810",
"g  c #0B4E18",
"h  c #134D10",
"j  c #1F4D14",
"k  c #0F5E1B",
"l  c #0D5515",
"z  c #175313",
"x  c #234E1B",
"c  c #23531A",
"v  c #3C4A1F",
"b  c #0F611C",
"n  c #15651C",
"m  c #27731B",
"M  c #347D1A",
"N  c #285720",
"B  c #3A5421",
"V  c #0E6E25",
"C  c #0E7B29",
"Z  c #0D7726",
"A  c #107426",
"S  c #107C29",
"D  c #177727",
"F  c #346829",
"G  c #454D15",
"H  c #75401E",
"J  c #774E1A",
"K  c #62441D",
"L  c #7C7A04",
"P  c #425E25",
"I  c #524328",
"U  c #694824",
"Y  c #744120",
"T  c #7B4A25",
"R  c #675226",
"E  c #715828",
"W  c #4D6824",
"Q  c #243242",
"!  c #2F5275",
"~  c #095A76",
"^  c #534B4B",
"/  c #445F4B",
"(  c #6B5A46",
")  c #6B5B48",
"_  c #7D705D",
"`  c #786953",
"'  c #747678",
"]  c #82551D",
"[  c #807F00",
"{  c #825426",
"}  c #855731",
"|  c #804F2C",
" . c #906934",
".. c #A3793F",
"X. c #A9773A",
"o. c #90704C",
"O. c #A47A41",
"+. c #A87D43",
"@. c #A47A56",
"#. c #827661",
"$. c #14802A",
"%. c #1A8329",
"&. c #298B27",
"*. c #388622",
"=. c #299129",
"-. c #3A9325",
";. c #3B9A26",
":. c #389A28",
">. c #2A8538",
",. c #3DA129",
"<. c #479A28",
"1. c #41A529",
"2. c #46A82B",
"3. c #54AB27",
"4. c #57B025",
"5. c #64A218",
"6. c #779955",
"7. c #818001",
"8. c #B9A00F",
"9. c #BBA211",
"0. c #B59032",
"q. c #95A915",
"w. c #D1BC21",
"e. c #C7B521",
"r. c #97CB15",
"t. c #A3D215",
"y. c #CAD612",
"u. c #E2DB07",
"i. c #E7E605",
"p. c #F1EC03",
"a. c #EAF504",
"s. c #FFFE01",
"d. c #FCF708",
"f. c #FBF708",
"g. c #F7EE14",
"h. c #FFFF13",
"j. c #E4CA29",
"k. c #EFD629",
"l. c #E8D327",
"z. c #F1D729",
"x. c #EED536",
"c. c #AA8043",
"v. c #AC844B",
"b. c #B18748",
"n. c #B68F55",
"m. c #968767",
"M. c #BD9768",
"N. c #AB9170",
"B. c #B08F6C",
"V. c #BFA17D",
"C. c #BEA67A",
"Z. c #948457",
"A. c #C1934A",
"S. c #C89B49",
"D. c #D49F4C",
"F. c #DBAE47",
"G. c #D7A651",
"H. c #D8A750",
"J. c #DEAB54",
"K. c #DCAB5A",
"L. c #CCA846",
"P. c #E2B54A",
"I. c #E7BB48",
"U. c #E1AC53",
"Y. c #E8B356",
"T. c #C2A67C",
"R. c #D2B17F",
"E. c #D1AE7E",
"W. c #C19D6D",
"Q. c #005B82",
"!. c #2C4F9C",
"~. c #3A5494",
"^. c #486684",
"/. c #4B6098",
"(. c #4B67A7",
"). c #7B7885",
"_. c #807F8B",
"`. c #73B2A7",
"'. c #08BAF7",
"]. c #2CB9E5",
"[. c #17C0FC",
"{. c #838394",
"}. c #838183",
"|. c #88BD94",
" X c #B5A082",
".X c #CAAC85",
"XX c #D6B58C",
"oX c #D9B78D",
"OX c #DCBB91",
"+X c #CAB093",
"@X c #8AC197",
"#X c #D5C29A",
"$X c #E6C99B",
"%X c #EBCEA6",
"&X c #E6D6AB",
"*X c #F0D5AD",
"=X c #F6DAAF",
"-X c #F5DBB2",
";X c #FEE5BC",
":X c #FFE8BF",
">X c #FFE9A9",
",X c #FFEAC2",
"<X c #FFE7C1",
"1X c #FFF3DD",
"2X c #EFE6C8",
"3X c #E9ECF3",
"4X c #FFFFFE",
"5X c #EAECEF",
"6X c #D1D3DA",
"7X c None",
/* pixels */
"7X7X7X7X7X7X7X7X7X7X7X7X7X7X7X7X7X7X7X7X7X7X7X7X7X7X7X7X7X7X7X7X7X7X7X7X7X7X7X7X7X7X7X7X7X7X7X7X7X7X7X7X7X7X7X7X7X7X7X7X7X7X7X7X",
"7X7X7X7X7X7X7X7X7X7X7X7X7X7X7X7X7X7X7X7X7X7X7X7X7X7X7X7X7X7X7X7X7X7X7X7X7X7X7X7X7X7X7X7X7X7X7X7X7X7X7X7X7X7X7X7X7X7X7X7X7X7X7X7X",
"7X7X7X7X7X7X7X7X7X7X7X7X7X7X7X7X7X7X7X7X7X7X7X7X7X7X7X7X7X7X7X7X7X7X7X7X7X7X7X7X7X7X7X7X7X7X7X7X7X7X7X7X7X7X7X7X7X7X7X7X7X7X7X7X",
"7X7X7X7X7X7X7X7X7X7X7X7X7X7X7X7X7X7X7X7X7X7X7X7X7X7X7X7X7X7X7X7X7X7X7X7X7X7X7X7X7X7X7X7X7X7X7X7X7X7X7X7X7X7X7X7X7X7X7X7X7X7X7X7X",
"7X7X7X7X7X7X7X7X7X7X7X7X7X7X7X7X7X7X7X7X7X7X7X7X7X7X7X7X7X7X7X7X7X7X7X7X7X7X7X7X7X7X7X7X7X7X7X7X7X7X7X7X7X7X7X7X7X7X7X7X7X7X7X7X",
"7X7X7X7X7X7X7X7X7X7X7X7X7X7X7X7X7X7X7X7X7X7X7X7X7X7X7X7X7X7X7XC S 1.1.1.1.;.h a b S D U e  .+.O.O.+.7X7X7X7X7X7X7X7X7X7X7X7X7X7X",
"7X7X7X7X7X7X7X7X7X7X7X7X7X7X7X7X7X7X7X7X7X7X7X7X7X7X7X7X7X7X7XZ $.;.1.1.1.;.h a k C D U e } O.O.O.O.7X7X7X7X7X7X7X7X7X7X7X7X7X7X",
"7X7X7X7X7X7X7X7X7X7X7X7X7X7X7X7X7X7X7X7X7X7X7X7Xa b S $.,.7X:.&.=.,.1.1.,.;.h < n =.&.8.9.0.A.A.A.A.S.7XH.c.+.7X7X7X7X7X7X7X7X7X",
"7X7X7X7X7X7X7X7X7X7X7X7X7X7X7X7X7X7X7X7X7X7X7Xa a k A $.,.1.1.1.2.1.<.,.1.;.h a m 2.4.a.s.z.K.U.J.J.J.J.G.+...+.7X7X7X7X7X7X7X7X",
"7X7X7X7X7X7X7X7X7X7X7X7X7X7X7X7X7X7X7X7X7X7X7Xh h n $.%.;.1.1.1.1.1.1.1.1.;.h < m 1.3.a.d.k.P.P.P.P.P.P.F.b.+.c.7X7X7X7X7X7X7X7X",
"7X7X7X7X7X7X7X7X7X7X7X7X7X7X7X7Xa a a a b S %.-.;.;.,.,.,.1.1.1.1.1.1.1.1.;.h a m 1.3.L.P.z.d.d.d.d.f.f.g.F.G.A.O.O.7X7X7X7X7X7X",
"7X7X7X7X7X7X7X7X7X7X7X7X7X7X7X7Xa a < a k C S ,.1.1.1.1.1.1.1.1.1.1.1.1.1.;.h a m ,.2.G.K.z.s.s.s.s.s.s.d.P.J.A.O.O.7X7X7X7X7X7X",
"7X7X7X7X7X7X7X7X7X7X7X7X7X7X7Xl k k b k D =.=.1.,.1.1.1.1.1.1.1.1.1.,.*.m m m m 5.t.t.l.k.k.k.k.k.k.k.k.z.z.z.j.w.e.{ H 7X7X7X7X",
"7X7X7X7X7X7X7X7X7X7X7X7X7Xd a k S S S C =.2.1.1.1.1.1.1.1.1.1.1.1.,.2.m a h ;.,.t.s.s.s.s.k.J.J.J.J.J.J.P.f.s.s.s.p.] e H 7X7X7X",
"7X7X7X7X7X7X7X7X7X7X7X7X7Xf f b S S S C =.,.;.1.1.1.1.1.;.;.;.;.,.1.1.m a h ;.,.t.s.s.f.f.l.H.H.H.H.H.H.F.g.d.p.p.u.] Y 7X7X7X7X",
"7X7X7X7X7X7X7X7X7X7X7X  X V A A S A S S S S %.,.1.1.1.;.z h h h z ;.2.m < h ;.,.t.s.f.I.P.S.c.c.c.c.c.c.b.F.P.0.] ] 7X7X7X7X7X7X",
"7X7X7X7X7X7X7X7X7X7X7X  X V S S S A C S A S $.,.1.1.1.;.s a a a h ;.2.m < h :.,.t.s.d.P.U.A.O...........c.H.U.X.H Y 7X7X7X7X7X7X",
"7X7X7X7X7X7X7X7X7X7X> 2 d A S C S S S S S S S &.=.=.=.&.m m m m m m m m m M r.r.y.k.j.S.A.n.M.M.M.M.o.t K A.7XX.Y 7X7X7X7X7X7X7X",
"7X7X7X7X7X7X7X7X    2 $.C C S S C S S S S S S C Z S Z $.,.1.,.2.;.h a m 1.4.a.s.k.J.G.c...M.XXXXXXoX(     7X7X7X7X7X7X7X7X7X7X7X",
"7X7X7X7X7X7X7X7X    2 S S C S S S S A C S S S A S S S $.:.,.;.;.-.h f m ,.3.a.s.k.K.G.v.v.W.OXoXXXoX(     7X7X7X7X7X7X7X7X7X7X7X",
"7X7X7X7X7X7X7X7X    3 S S S S A S S S S S A S S S S S S $.$.n f h Z Z D $.&.a.s.k.J.J.E.E.$X;X=XOXoX(     7X7X7X7X7X7X7X7X7X7X7X",
"7X7X7X7X7X7X7X7X    3 S S S S C C S S C S S S S S S S S C Z b a a Z $.Z C &.a.s.z.H.K.XXXX%X:X;XOXoX)     7X7X7X7X7X7X7X7X7X7X7X",
"7X7X7X7X7X7X  + 2 2 k C A b k k k k d 2 g k k k k k V k b k k V b b b c B W 9.w.j.k.x.$X%X X_ #.@.@.t     7X7X7X7X7X7X7X7X7X7X7X",
"7X7X7X7X7X    X V $.S C A f a < < 1 X   : a a a a < < < < 2 k $.Z a a v Y T O.O.w.s.h.>X,X_     w Y ;     7X7X7X7X7X7X7X7X7X7X7X",
"7X7X7X7X7X    # V A A A V a < < < 1 X   @ < < < a a a s x N F >.>.c c I Y T O.+.w.p.g.>X,X#.& 7 u U r % % 7X7X7X7X7X7X7X7X7X7X7X",
"7X7X7X    : < a f f f h a X   X   X 7X7X  X X < a a a x #X&X&X&X&XT.T.o.Y T S.J.S.0.n.-X<X2X5X6X/.~.). XN.%   7X7X7X7X7X7X7X7X7X",
"7X7X7X    : a a d a a a < X         7X7X    X < s a a N &X,X;X;X;XoXXX@.e T D.U.S.X.v.-X<X1X4X3X(.!.{.oXV.%     7X7X7X7X7X7X7X7X",
"7X7X7X7X7X# : : @ : : : @   7X    7X7X7X7X    @ @ : : 4 C.E.$X,X;X%X%XB.e | j.z.0.} o.*X<X1X4X3X(.!.{.oXV.%     7X7X7X7X7X7X7X7X",
"7X7X7X7X7X7X              7X7X7X7X7X7X7X7X7X7X        O  .X..X,X;X;X2XM.K ] p.s.8.u | *X<X1X4X3X(.!.{.oX X%     7X7X7X7X7X7X7X7X",
"7X7X7X7X7X7X              7X7X7X7X7X7X7X7X7X7X        O  . .T.-X-X-X2XN.T { p.s.8.e | *X;X1X4X3X(./.).V.N.%   7X7X7X7X7X7X7X7X7X",
"7X7X7X7X7X7X7X7X7X7X7X7X7X7X7X7X7X7X7X7X7X7X7X7X7X    X o o R v.m.].[.`.D.F.d.s.9.e | *X;X<X,X-X+X+X` % % 7X7X7X7X7X7X7X7X7X7X7X",
"7X7X7X7X7X7X7X7X7X7X7X7X7X7X7X7X7X7X7X7X7X7X7X7X7X7X        I X.Z.'.[.`.U.P.f.s.8.u | *X<X;X<X;XOXOX(     7X7X7X7X7X7X7X7X7X7X7X",
"7X7X7X7X7X7X7X7X7X7X7X7X7X7X7X7X7X7X7X7X7X7X7X7X7X7.7.L E E U t I ~ Q.6.z.l.9.8.0.@.B.$X%X%X%XOX` ( y 7X7X7X7X7X7X7X7X7X7X7X7X7X",
"7X7X7X7X7X7X7X7X7X7X7X7X7X7X7X7X7X7X7X7X7X7X7X7X7Xs.s.f.I.Y.E         [ s.p.] e @.oXXX.XXXXXXXV.O   7X7X7X7X7X7X7X7X7X7X7X7X7X7X",
"7X7X7X7X7X7X7X7X7X7X7X7X7X7X7X7X7X7X7X7X7X7X7X7X7Xi.i.u.S.S.R   X     [ f.l.J w o..XT.T.C. XV.N.%   7X7X7X7X7X7X7X7X7X7X7X7X7X7X",
"7X7X7X7X7X7X7X7X7X7X7X7X7X7X7X7X7X7X7X7X7X7X7X7X7X* , $ $ % , < > X   E I.e.* . 4 c x x c 4 % % 7X7X7X7X7X7X7X7X7X7X7X7X7X7X7X7X",
"7X7X7X7X7X7X7X7X7X7X7X7X7X7X7X7X7X7X7X7X7X7X7X7X7X          @ a 1     E Y.S.%   @ a a < a @     7X7X7X7X7X7X7X7X7X7X7X7X7X7X7X7X",
"7X7X7X7X7X7X7X7X7X7X7X7X7X7X7X7X7X7X7X7X7X7X7X7X7X7X        > V k d 3 v E R , @ 3 b b k b g 3 2 X   7X7X7X7X7X7X7X7X7X7X7X7X7X7X",
"7X7X7X7X7X7X7X7X7X7X7X7X7X7X7X7X7X7X7X7X7X7X7X7X7X7X7X7X    3 S C $.$.3     < a b $.S S S S C V X     7X7X7X7X7X7X7X7X7X7X7X7X7X",
"7X7X7X7X7X7X7X7X7X7X7X7X7X7X7X7X7X7X7X7X7X7X7X7X7X7X7X7X    3 S C V V 3 X # a f k V V Z S Z S V , $ $ 7X7X7X7X7X7X7X7X7X7X7X7X7X",
"7X7X7X7X7X7X7X7X7X7X7X7X7X7X7X7X7X7X7X7X7X7X7X7X7X7X7X7X    d S V # X 3 V V Z Z d X # V C C C &.u.i.L     7X7X7X7X7X7X7X7X7X7X7X",
"7X7X7X7X7X7X7X7X7X7X7X7X7X7X7X7X7X7X7X7X7X7X7X7X7X7X7X7X    2 S V X   2 C Z Z Z 2   X V S S Z &.a.s.7.    7X7X7X7X7X7X7X7X7X7X7X",
"7X7X7X7X7X7X7X7X7X7X7X7X7X7X7X7X7X7X7X7X7X7X7X7X7X7X  X 3 2 x P B X   / @X|.|.@X/   X B P P P W 5.r.G X   7X7X7X7X7X7X7X7X7X7X7X",
"7X7X7X7X7X7X7X7X7X7X7X7X7X7X7X7X7X7X7X7X7X7X7X7X7X    X V C P i u o   }.4X4X4X4X_.  . q H H i U D C d     7X7X7X7X7X7X7X7X7X7X7X",
"7X7X7X7X7X7X7X7X7X7X7X7X7X7X7X7X7X7X7X7X7X7X7X7X7X    X V C F T K O   ' 3X5X5X3X'   o K U J U R D %.3     7X7X7X7X7X7X7X7X7X7X7X",
"7X7X7X7X7X7X7X7X7X7X7X7X7X7X7X7X7X7X7X7X7X7X7X7X7X    X V C &.<.<.+   Q ^.^.^.^.Q   + *.<.<.<.<.1.1.c     7X7X7X7X7X7X7X7X7X7X7X",
"7X7X7X7X7X7X7X7X7X7X7X7X7X7X7X7X7X7X7X7X7X7X7X7X7X    X V $.=.,.*.+   8 ! ! ! ! 8   # -.1.1.1.1.2.2.c     7X7X7X7X7X7X7X7X7X7X7X",
"7X7X7X7X7X7X7X7X7X7X7X7X7X7X7X7X7X7X7X7X7X7X7X7X7X7X  X 3 2 m 2.-.+   9 ^ ^ ^ ^ 9   # -.1.,.1.;.z j ,     7X7X7X7X7X7X7X7X7X7X7X",
"7X7X7X7X7X7X7X7X7X7X7X7X7X7X7X7X7X7X7X7X7X7X7X7X7X7X7X7X    j 2.-.+   ; H H H e ;   + -.1.1.1.-.#         7X7X7X7X7X7X7X7X7X7X7X",
"7X7X7X7X7X7X7X7X7X7X7X7X7X7X7X7X7X7X7X7X7X7X7X7X7X7X7X7X    x -.M +   0 | | } } 0   + *.-.-.-.*.#         7X7X7X7X7X7X7X7X7X7X7X",
"7X7X7X7X7X7X7X7X7X7X7X7X7X7X7X7X7X7X7X7X7X7X7X7X7X7X7X7X7X7X# # #     R .X.X%X=X`     + + + + +       7X7X7X7X7X7X7X7X7X7X7X7X7X",
"7X7X7X7X7X7X7X7X7X7X7X7X7X7X7X7X7X7X7X7X7X7X7X7X7X7X7X7X7X7X          ) OXOX,X,X#.                  7X7X7X7X7X7X7X7X7X7X7X7X7X7X",
"7X7X7X7X7X7X7X7X7X7X7X7X7X7X7X7X7X7X7X7X7X7X7X7X7X7X7X7X7X7X7X        9 ` ) _ #.y     % - - 6 = .     7X7X7X7X7X7X7X7X7X7X7X7X7X",
"7X7X7X7X7X7X7X7X7X7X7X7X7X7X7X7X7X7X7X7X7X7X7X7X7X7X7X7X7X7X7X7X7X                  . r r u Y q .     7X7X7X7X7X7X7X7X7X7X7X7X7X",
"7X7X7X7X7X7X7X7X7X7X7X7X7X7X7X7X7X7X7X7X7X7X7X7X7X7X7X7X7X7X7X7X7X                . O 0 r u i w .     7X7X7X7X7X7X7X7X7X7X7X7X7X",
"7X7X7X7X7X7X7X7X7X7X7X7X7X7X7X7X7X7X7X7X7X7X7X7X7X7X7X7X7X7X7X7X7X7X7X          * 0 0 u u i i w .     7X7X7X7X7X7X7X7X7X7X7X7X7X",
"7X7X7X7X7X7X7X7X7X7X7X7X7X7X7X7X7X7X7X7X7X7X7X7X7X7X7X7X7X7X7X7X7X7X7X          - r r i Y Y Y u .     7X7X7X7X7X7X7X7X7X7X7X7X7X",
"7X7X7X7X7X7X7X7X7X7X7X7X7X7X7X7X7X7X7X7X7X7X7X7X7X7X7X7X7X7X7X7X7X7X7X7X        O - - ; 6 6 6 = .     7X7X7X7X7X7X7X7X7X7X7X7X7X",
"7X7X7X7X7X7X7X7X7X7X7X7X7X7X7X7X7X7X7X7X7X7X7X7X7X7X7X7X7X7X7X7X7X7X7X7X7X7X                          7X7X7X7X7X7X7X7X7X7X7X7X7X",
"7X7X7X7X7X7X7X7X7X7X7X7X7X7X7X7X7X7X7X7X7X7X7X7X7X7X7X7X7X7X7X7X7X7X7X7X7X7X                          7X7X7X7X7X7X7X7X7X7X7X7X7X",
"7X7X7X7X7X7X7X7X7X7X7X7X7X7X7X7X7X7X7X7X7X7X7X7X7X7X7X7X7X7X7X7X7X7X7X7X7X7X7X7X7X7X7X7X7X7X7X7X7X7X7X7X7X7X7X7X7X7X7X7X7X7X7X7X",
"7X7X7X7X7X7X7X7X7X7X7X7X7X7X7X7X7X7X7X7X7X7X7X7X7X7X7X7X7X7X7X7X7X7X7X7X7X7X7X7X7X7X7X7X7X7X7X7X7X7X7X7X7X7X7X7X7X7X7X7X7X7X7X7X",
"7X7X7X7X7X7X7X7X7X7X7X7X7X7X7X7X7X7X7X7X7X7X7X7X7X7X7X7X7X7X7X7X7X7X7X7X7X7X7X7X7X7X7X7X7X7X7X7X7X7X7X7X7X7X7X7X7X7X7X7X7X7X7X7X",
"7X7X7X7X7X7X7X7X7X7X7X7X7X7X7X7X7X7X7X7X7X7X7X7X7X7X7X7X7X7X7X7X7X7X7X7X7X7X7X7X7X7X7X7X7X7X7X7X7X7X7X7X7X7X7X7X7X7X7X7X7X7X7X7X"
};
