/* XPM */
static char *result[] = {
/* columns rows colors chars-per-pixel */
"64 64 3 1 ",
"  c #21672B",
". c #347838",
"X c #3B8938",
/* pixels */
"....    ....    XXXXXXXXXXXXXXXXXXXXXXXXXXXXXXXX    ....    ....",
"....    ....    XXXXXXXXXXXXXXXXXXXXXXXXXXXXXXXX    ....    ....",
"....    ....    XXXXXXXXXXXXXXXXXXXXXXXXXXXXXXXX    ....    ....",
"....    ....    XXXXXXXXXXXXXXXXXXXXXXXXXXXXXXXX    ....    ....",
"            XXXXXXXX        XXXXXXXX        XXXXXXXX            ",
"            XXXXXXXX        XXXXXXXX        XXXXXXXX            ",
"            XXXXXXXX        XXXXXXXX        XXXXXXXX            ",
"            XXXXXXXX        XXXXXXXX        XXXXXXXX            ",
"    XXXXXXXXXXXXXXXXXXXX    XXXXXXXX    XXXXXXXXXXXXXXXXXXXX    ",
"    XXXXXXXXXXXXXXXXXXXX    XXXXXXXX    XXXXXXXXXXXXXXXXXXXX    ",
"    XXXXXXXXXXXXXXXXXXXX    XXXXXXXX    XXXXXXXXXXXXXXXXXXXX    ",
"    XXXXXXXXXXXXXXXXXXXX    XXXXXXXX    XXXXXXXXXXXXXXXXXXXX    ",
"    XXXXXXXXXXXXXXXXXXXXXXXXXXXXXXXXXXXXXXXXXXXXXXXXXXXXXXXX    ",
"    XXXXXXXXXXXXXXXXXXXXXXXXXXXXXXXXXXXXXXXXXXXXXXXXXXXXXXXX    ",
"    XXXXXXXXXXXXXXXXXXXXXXXXXXXXXXXXXXXXXXXXXXXXXXXXXXXXXXXX    ",
"    XXXXXXXXXXXXXXXXXXXXXXXXXXXXXXXXXXXXXXXXXXXXXXXXXXXXXXXX    ",
"XXXXXXXXXXXXXXXX        XXXXXXXXXXXXXXXX        XXXXXXXXXXXXXXXX",
"XXXXXXXXXXXXXXXX        XXXXXXXXXXXXXXXX        XXXXXXXXXXXXXXXX",
"XXXXXXXXXXXXXXXX        XXXXXXXXXXXXXXXX        XXXXXXXXXXXXXXXX",
"XXXXXXXXXXXXXXXX        XXXXXXXXXXXXXXXX        XXXXXXXXXXXXXXXX",
"XXXX        XXXX    XXXXXXXX        XXXXXXXX    XXXX        XXXX",
"XXXX        XXXX    XXXXXXXX        XXXXXXXX    XXXX        XXXX",
"XXXX        XXXX    XXXXXXXX        XXXXXXXX    XXXX        XXXX",
"XXXX        XXXX    XXXXXXXX        XXXXXXXX    XXXX        XXXX",
"XXXXXXXX    XXXXXXXXXXXXXXXXXXXXXXXXXXXXXXXXXXXXXXXX    XXXXXXXX",
"XXXXXXXX    XXXXXXXXXXXXXXXXXXXXXXXXXXXXXXXXXXXXXXXX    XXXXXXXX",
"XXXXXXXX    XXXXXXXXXXXXXXXXXXXXXXXXXXXXXXXXXXXXXXXX    XXXXXXXX",
"XXXXXXXX    XXXXXXXXXXXXXXXXXXXXXXXXXXXXXXXXXXXXXXXX    XXXXXXXX",
"XXXXXXXXXXXXXXXXXXXXXXXX    XXXXXXXX    XXXXXXXXXXXXXXXXXXXXXXXX",
"XXXXXXXXXXXXXXXXXXXXXXXX    XXXXXXXX    XXXXXXXXXXXXXXXXXXXXXXXX",
"XXXXXXXXXXXXXXXXXXXXXXXX    XXXXXXXX    XXXXXXXXXXXXXXXXXXXXXXXX",
"XXXXXXXXXXXXXXXXXXXXXXXX    XXXXXXXX    XXXXXXXXXXXXXXXXXXXXXXXX",
"XXXXXXXXXXXXXXXXXXXXXXXX    XXXXXXXX    XXXXXXXXXXXXXXXXXXXXXXXX",
"XXXXXXXXXXXXXXXXXXXXXXXX    XXXXXXXX    XXXXXXXXXXXXXXXXXXXXXXXX",
"XXXXXXXXXXXXXXXXXXXXXXXX    XXXXXXXX    XXXXXXXXXXXXXXXXXXXXXXXX",
"XXXXXXXXXXXXXXXXXXXXXXXX    XXXXXXXX    XXXXXXXXXXXXXXXXXXXXXXXX",
"XXXXXXXX    XXXXXXXXXXXXXXXXXXXXXXXXXXXXXXXXXXXXXXXX    XXXXXXXX",
"XXXXXXXX    XXXXXXXXXXXXXXXXXXXXXXXXXXXXXXXXXXXXXXXX    XXXXXXXX",
"XXXXXXXX    XXXXXXXXXXXXXXXXXXXXXXXXXXXXXXXXXXXXXXXX    XXXXXXXX",
"XXXXXXXX    XXXXXXXXXXXXXXXXXXXXXXXXXXXXXXXXXXXXXXXX    XXXXXXXX",
"XXXX        XXXX    XXXXXXXX        XXXXXXXX    XXXX        XXXX",
"XXXX        XXXX    XXXXXXXX        XXXXXXXX    XXXX        XXXX",
"XXXX        XXXX    XXXXXXXX        XXXXXXXX    XXXX        XXXX",
"XXXX        XXXX    XXXXXXXX        XXXXXXXX    XXXX        XXXX",
"XXXXXXXXXXXXXXXX        XXXXXXXXXXXXXXXX        XXXXXXXXXXXXXXXX",
"XXXXXXXXXXXXXXXX        XXXXXXXXXXXXXXXX        XXXXXXXXXXXXXXXX",
"XXXXXXXXXXXXXXXX        XXXXXXXXXXXXXXXX        XXXXXXXXXXXXXXXX",
"XXXXXXXXXXXXXXXX        XXXXXXXXXXXXXXXX        XXXXXXXXXXXXXXXX",
"    XXXXXXXXXXXXXXXXXXXXXXXXXXXXXXXXXXXXXXXXXXXXXXXXXXXXXXXX    ",
"    XXXXXXXXXXXXXXXXXXXXXXXXXXXXXXXXXXXXXXXXXXXXXXXXXXXXXXXX    ",
"    XXXXXXXXXXXXXXXXXXXXXXXXXXXXXXXXXXXXXXXXXXXXXXXXXXXXXXXX    ",
"    XXXXXXXXXXXXXXXXXXXXXXXXXXXXXXXXXXXXXXXXXXXXXXXXXXXXXXXX    ",
"    XXXXXXXXXXXXXXXXXXXX    XXXXXXXX    XXXXXXXXXXXXXXXXXXXX    ",
"    XXXXXXXXXXXXXXXXXXXX    XXXXXXXX    XXXXXXXXXXXXXXXXXXXX    ",
"    XXXXXXXXXXXXXXXXXXXX    XXXXXXXX    XXXXXXXXXXXXXXXXXXXX    ",
"    XXXXXXXXXXXXXXXXXXXX    XXXXXXXX    XXXXXXXXXXXXXXXXXXXX    ",
"            XXXXXXXX        XXXXXXXX        XXXXXXXX            ",
"            XXXXXXXX        XXXXXXXX        XXXXXXXX            ",
"            XXXXXXXX        XXXXXXXX        XXXXXXXX            ",
"            XXXXXXXX        XXXXXXXX        XXXXXXXX            ",
"....    ....    XXXXXXXXXXXXXXXXXXXXXXXXXXXXXXXX    ....    ....",
"....    ....    XXXXXXXXXXXXXXXXXXXXXXXXXXXXXXXX    ....    ....",
"....    ....    XXXXXXXXXXXXXXXXXXXXXXXXXXXXXXXX    ....    ....",
"....    ....    XXXXXXXXXXXXXXXXXXXXXXXXXXXXXXXX    ....    ...."
};
