/* XPM */
static char *result[] = {
/* columns rows colors chars-per-pixel */
"64 64 136 2 ",
"   c #A87600",
".  c #AC7C00",
"X  c #AD7F08",
"o  c #B17F00",
"O  c #AF8005",
"+  c #AF8109",
"@  c #B08004",
"#  c #BA8700",
"$  c #BC8903",
"%  c #B2830A",
"&  c #B6880F",
"*  c #BA8B0E",
"=  c #B78A12",
"-  c #BA8D16",
";  c #BE921C",
":  c #B68C20",
">  c #BB9227",
",  c #BB942E",
"<  c #BC9531",
"1  c #BE9836",
"2  c #C38E01",
"3  c #CD9600",
"4  c #CF9907",
"5  c #CF9A0A",
"6  c #D29A00",
"7  c #D99F00",
"8  c #D29D0B",
"9  c #C0941F",
"0  c #DAA100",
"q  c #DBA50F",
"w  c #E0A500",
"e  c #EAAD00",
"r  c #EEB000",
"t  c #F4B500",
"y  c #F8B700",
"u  c #F8B800",
"i  c #F3B70A",
"p  c #F8BB0B",
"a  c #EAB319",
"s  c #F8BD13",
"d  c #F8BF1A",
"f  c #C09520",
"g  c #C49925",
"h  c #C19729",
"j  c #C69C2A",
"k  c #C99F2E",
"l  c #C79E30",
"z  c #CBA231",
"x  c #D3AB3B",
"c  c #EFBE2F",
"v  c #F3BD22",
"b  c #F8C01F",
"n  c #F8C122",
"m  c #F8C32A",
"M  c #EFC03A",
"N  c #F1C136",
"B  c #F8C633",
"V  c #F8C83C",
"C  c #C29F44",
"Z  c #C8A54B",
"A  c #D6AF42",
"S  c #DBB446",
"D  c #DBB54A",
"F  c #DEB84F",
"G  c #C9AA59",
"H  c #DFB950",
"J  c #E1BC54",
"K  c #CCAF64",
"L  c #CDB066",
"P  c #CEB269",
"I  c #D7BA6E",
"U  c #D8BB6F",
"Y  c #D1B672",
"T  c #D3B870",
"R  c #D4BC7C",
"E  c #EEC242",
"W  c #F3C644",
"Q  c #F8CA44",
"!  c #F8CC4C",
"~  c #E6C25C",
"^  c #E8C55F",
"/  c #F8CE52",
"(  c #F3CD5F",
")  c #F9D15B",
"_  c #D8C07E",
"`  c #E7C560",
"'  c #EAC761",
"]  c #ECCA66",
"[  c #F1CF6D",
"{  c #F8D364",
"}  c #F2D16F",
"|  c #F8D56C",
" . c #F5D474",
".. c #F8D773",
"X. c #F8D877",
"o. c #F3D479",
"O. c #F8D979",
"+. c #D6BF82",
"@. c #D7C085",
"#. c #D8C187",
"$. c #D9C48C",
"%. c #DECC9B",
"&. c #E1CA8C",
"*. c #F3D682",
"=. c #F9DB84",
"-. c #F9DE8D",
";. c #F7DE92",
":. c #F9DF90",
">. c #FAE095",
",. c #FAE29A",
"<. c #E3D2A6",
"1. c #E3D3AA",
"2. c #EEDFB5",
"3. c #FAE4A1",
"4. c #FBE7AC",
"5. c #FBE8AF",
"6. c #FBE9B4",
"7. c #FCECBE",
"8. c #EEE4CA",
"9. c #F7E9C1",
"0. c #FCEDC1",
"q. c #F2E8CF",
"w. c #FCEFC9",
"e. c #FCF0CC",
"r. c #F3EDDB",
"t. c #FDF3D4",
"y. c #FEF5D8",
"u. c #F6F1E4",
"i. c #FDF6E1",
"p. c #FFF8E5",
"a. c #F9F6EE",
"s. c #FEF9EC",
"d. c #FAF7F1",
"f. c #FDFBF4",
"g. c #FFFFFE",
"h. c None",
/* pixels */
"h.h.h.h.h.h.h.h.h.h.h.h.h.h.h.h.h.h.h.h.h.h.h.h.h.h.h.h.h.h.h.h.h.h.h.h.h.h.h.h.h.h.h.h.h.h.h.h.h.h.h.h.h.h.h.h.h.h.h.h.h.h.h.h.",
"h.h.h.h.h.h.h.h.h.h.h.h.h.h.h.h.h.h.h.h.h.h.h.h.h.h.h.h.h.h.h.h.h.h.h.h.h.h.h.h.h.h.h.h.h.h.h.h.h.h.h.h.h.h.h.h.h.h.h.h.h.h.h.h.",
"h.h.h.h.h.h.h.h.h.h.h.h.h.h.h.h.h.h.h.h.h.h.h.h.h.h.h.h.h.h.h.h.h.h.h.h.h.h.h.h.h.h.h.h.h.h.h.h.h.h.h.h.h.h.h.h.h.h.h.h.h.h.h.h.",
"h.h.h.h.h.h.h.h.h.h.h.h.h.h.h.h.h.h.h.h.h.h.h.h.h.h.h.h.h.h.h.h.h.h.h.h.h.h.h.h.h.h.h.h.h.h.h.h.h.h.h.h.h.h.h.h.h.h.h.h.h.h.h.h.",
"h.h.h.h.h.h.h.h.h.h.h.h.h.h.h.h.h.h.h.h.h.h.h.h.h.h.h.h.h.h.h.h.h.h.h.h.h.h.h.h.h.h.h.h.h.h.h.h.h.h.h.h.h.h.h.h.h.h.h.h.h.h.h.h.",
"h.h.h.h.h.h.h.h.h.h.h.h.h.h.h.h.h.h.h.h.h.h.h.h.h.h.h.h.h.h.h.h.h.h.h.h.h.h.h.h.h.h.h.h.h.h.h.h.h.h.h.h.h.h.h.h.h.h.h.h.h.h.h.h.",
"h.h.h.h.h.h.h.h.h.h.h.h.h.h.h.h.h.h.h.h.h.h.h.h.h.h.h.h.h.h.h.h.h.h.h.h.h.h.h.h.h.h.h.h.h.h.h.h.h.h.h.h.h.h.h.h.h.h.h.h.h.h.h.h.",
"h.h.h.h.h.h.h.h.h.h.h.h.h.h.h.h.h.h.h.h.h.h.h.h.h.. . . . . . . . . . . . O . . . h.h.h.h.h.h.h.h.h.h.h.h.h.h.h.h.h.h.h.h.h.h.h.",
"h.h.h.h.h.h.h.h.h.h.h.h.h.h.h.h.h.h.h.h.h.h.h.h.h.% % % % % % % % % % @ @ % @ . . h.h.h.h.h.h.h.h.h.h.h.h.h.h.h.h.h.h.h.h.h.h.h.",
"h.h.h.h.h.h.h.h.h.h.h.h.h.h.h.h.h.h.h.h.h.. . . @ F ( ] ^ ^ ^ ' ' ' ' ^ ' ] D @ . . . . . . h.h.h.h.h.h.h.h.h.h.h.h.h.h.h.h.h.h.",
"h.h.h.h.h.h.h.h.h.h.h.h.h.h.h.h.h.h.h.h.h.. . . O ^ O.O.O.O.O.O.O.O.O.O.O.O.` o .   . . . . h.h.h.h.h.h.h.h.h.h.h.h.h.h.h.h.h.h.",
"h.h.h.h.h.h.h.h.h.h.h.h.h.h.h.h.h.h.h.  g D S D S N m B B B B B B B B B B B N S D S D 9 . . . . h.h.h.h.h.h.h.h.h.h.h.h.h.h.h.h.",
"h.h.h.h.h.h.h.h.h.h.h.h.h.h.h.h.h.h..   z O.O.O.X.b u u u u u u u u u u u u d ..O.O.O.z   . . . h.h.h.h.h.h.h.h.h.h.h.h.h.h.h.h.",
"h.h.h.h.h.h.h.h.h.h.h.h.h.h.h.h.h.h.g j D O...! ! p u e 0 0 0 w 0 w w 0 e u s ! / ..X.D j ; . . h.h.h.h.h.h.h.h.h.h.h.h.h.h.h.h.",
"h.h.h.h.h.h.h.h.h.h.h.h.h.h.h.h.. . F O.X.O.{ p u u u 3 . .   . . . . . 3 u u u p { O.X.O.F . . . . h.h.h.h.h.h.h.h.h.h.h.h.h.h.",
"h.h.h.h.h.h.h.h.h.h.h.h.h.h.h.h.= = J O.| | / p u r r 5 = = - = - = = = 8 e t u u ) { ..O.J - & . O h.h.h.h.h.h.h.h.h.h.h.h.h.h.",
"h.h.h.h.h.h.h.h.h.h.h.h.h.h.. % ^ } ..O.! p p u y $ @ x | } } [ [ } } } x @ 2 t u p p ! X.o. .^ % . . . h.h.h.h.h.h.h.h.h.h.h.h.",
"h.h.h.h.h.h.h.h.h.h.h.h.h.h.. % ] O.X.O.Q u u u u $ O x X.X.O.O.X.X.X.X.A . $ t y u u Q X...O.] & . . . . h.h.h.h.h.h.h.h.h.h.h.",
"h.h.h.h.h.h.h.h.h.h.h.h.h.h.. & ] O.V b b u r 2 $ S ~ M b V X.X.X.X.V b M ~ S 2 2 r u s b V O.] % . . . . h.h.h.h.h.h.h.h.h.h.h.",
"h.h.h.h.h.h.h.h.h.h.h.h.h.h.  % ] O.m u u u e . X ` O.B u n X.X.O.X.n u V O.` O . e u u y m X.' % . . . h.h.h.h.h.h.h.h.h.h.h.h.",
"h.h.h.h.h.h.h.h.h.h.h.h.h.1 R R o.X.m u e 6 8 x x M V b u s V Q ..X.! V V V N 6 6 6 6 e y m X. .A x &   . h.h.h.h.h.h.h.h.h.h.h.",
"h.h.h.h.h.h.h.h.h.h.h..   C g.f.-.X.m u 7   - ....d u u u u u p | O.X.X.W y y u t #   0 u m X.X.X.X.g . . . . h.h.h.h.h.h.h.h.h.",
"h.h.h.h.h.h.h.h.h.h.h.. . Z f.g.4.>.B u 0 . - } ..b u u u u u p ! ) ..X.! b d u t # . 0 y m X.O.X.o.> . . O . h.h.h.h.h.h.h.h.h.",
"h.h.h.h.h.h.h.h.h.h.h..   C f.g.g.g.) u 0 . - } ..d u u t u u t p p / O.X...) p t # . 0 p m X.X.X...9 . . . . h.h.h.h.h.h.h.h.h.",
"h.h.h.h.h.h.h.h.h.h.h.. . Z f.g.g.g.) u 0   - } ..n p u u y u u y y ! | ..X.{ p p # . 0 u m X.X.X...> . . . O h.h.h.h.h.h.h.h.h.",
"h.h.h.h.h.h.h.h.h.h.h..   C f.g.g.g.) u 7 . - ..O.| | m u u u u u u p s W X...| ] = . 0 u m X.X.X...9 . . . . h.h.h.h.h.h.h.h.h.",
"h.h.h.h.h.h.h.h.h.h.h..   Z f.g.g.g.) u 7 . -  .X.X.O.B u u u y u y u y B X.X.X. .- . 0 u m X.X.O...f . . . . h.h.h.h.h.h.h.h.h.",
"h.h.h.h.h.h.h.h.h.h.h..   C f.g.g.g.) u 0   > 9.e.-.X.{ ! B u y u u u u d m V X.} - . 0 u m X.X.X...f . . . . h.h.h.h.h.h.h.h.h.",
"h.h.h.h.h.h.h.h.h.h.h.. . Z f.g.g.g.) u 0 . , d.g.>...X.O.) y y u u u u u y d .. .-   0 p m X.O.X...> . . . . h.h.h.h.h.h.h.h.h.",
"h.h.h.h.h.h.h.h.h.h.h..   C f.g.g.g.) u 7 . < a.g.0.4.:...{ B m i u u u u u s Q W * . 0 y m X.X.X.o.9 . . . . h.h.h.h.h.h.h.h.h.",
"h.h.h.h.h.h.h.h.h.h.h..   C f.g.g.g.) u 7 . < a.g.g.g.6.....O.| p u u u u u u u t #   7 y m X.O.X...g   O . . h.h.h.h.h.h.h.h.h.",
"h.h.h.h.h.h.h.h.h.h.h.. . Z f.g.g.g.) u 7 . < a.g.g.g.0.:.-.O.| b d p u t u u u t # . 0 u m X.X.X.X.; . . . . h.h.h.h.h.h.h.h.h.",
"h.h.h.h.h.h.h.h.h.h.h..   C f.g.g.g.) u 0   < a.g.g.g.g.g.e.O.O.| | n y u u u u t #   0 u m X.X.X...>   . . . h.h.h.h.h.h.h.h.h.",
"h.h.h.h.h.h.h.h.h.h.h..   Z d.g.g.g.) u 0 . < a.g.g.g.g.g.t.=.O.X.X.m u u u u t t # . 0 u m X.X.o.O.f . . O . h.h.h.h.h.h.h.h.h.",
"h.h.h.h.h.h.h.h.h.h.h.. . > ;.3.s.g.) u 0 . , a.g.g.g.g.g.f.i.t.=.X.| { B u u u t #   0 u m X.X.X...9 . . . . h.h.h.h.h.h.h.h.h.",
"h.h.h.h.h.h.h.h.h.h.h.O . f  .=.s.g.) u 0 . < a.g.g.g.g.g.g.g.s.=.X.X.O.W u u u y $ . 0 u m X.X.X.X.f . . . . h.h.h.h.h.h.h.h.h.",
"h.h.h.h.h.h.h.h.h.h.h.. . g ..O.4.6.Q u 0 . < a.g.g.g.g.g.g.g.g.e.7.;.X.) Q B p t # . 0 u m ..O.X...; . . . . h.h.h.h.h.h.h.h.h.",
"h.h.h.h.h.h.h.h.h.h.h.. . f  .X...X.m u 0   < a.g.g.g.g.g.g.g.g.g.g.3.X.X.O.) u t #   0 u m O.O.X.o.g . . . . h.h.h.h.h.h.h.h.h.",
"h.h.h.h.h.h.h.h.h.h.h.. . 9  .O.O.X.m u 0 . < a.g.g.g.g.g.g.g.g.g.g.7.,.;.X.{ m v $ . 7 u m ..O.O. .> . . . O h.h.h.h.h.h.h.h.h.",
"h.h.h.h.h.h.h.h.h.h.h.O   >  .O...X.m u 0   < a.g.g.g.g.g.g.g.g.g.g.g.g.0.X.X.X.} -   7 u m O...O...9   . . . h.h.h.h.h.h.h.h.h.",
"h.h.h.h.h.h.h.h.h.h.h.. . g ..O.O.O.m u 7   < a.g.g.g.g.g.g.g.g.g.g.g.g.e.=.=.O...-   0 u m ..O.X...> . . . O h.h.h.h.h.h.h.h.h.",
"h.h.h.h.h.h.h.h.h.h.h.. . ; ..X.O...m u 0 . < a.g.g.g.g.g.g.g.g.g.g.g.g.f.f.t.O. .- . 0 u m O.O.X...9 . . . . h.h.h.h.h.h.h.h.h.",
"h.h.h.h.h.h.h.h.h.h.h.h.  9 ..X.O...m u 0 . , a.g.g.g.g.g.g.g.g.g.g.g.g.g.g.i.o.| - . 0 u m O...X...; . . . . h.h.h.h.h.h.h.h.h.",
"h.h.h.h.h.h.h.h.h.h.h.h.h.- g k [ O.m u t w q Z G r.g.g.g.g.g.g.g.g.g.g.g.g.q.l g q 0 r u m O.| k g & . . h.h.h.h.h.h.h.h.h.h.h.",
"h.h.h.h.h.h.h.h.h.h.h.h.h.h.. % ] O.m p u u e o X 8.g.g.g.g.g.g.g.g.g.g.g.g.8.X . e u u u m O.] + . . . h.h.h.h.h.h.h.h.h.h.h.h.",
"h.h.h.h.h.h.h.h.h.h.h.h.h.h.o % ] X.! B v u t 6 5 I $.8.g.g.g.g.g.g.g.g.8.$.#.Y T } ..! B ! O.] % . . . . h.h.h.h.h.h.h.h.h.h.h.",
"h.h.h.h.h.h.h.h.h.h.h.h.h.h.. % ] O.O.o.Q y u u y #   $.g.g.g.g.g.g.g.g.$.  1 f.g.g.g.5.X.X.O.] & . . . . h.h.h.h.h.h.h.h.h.h.h.",
"h.h.h.h.h.h.h.h.h.h.h.h.h.h.. % J ' } O./ d d u t 3 # I 8.8.8.8.8.8.8.8.#.1 K f.g.g.g.0.>.*.^ J % . . . h.h.h.h.h.h.h.h.h.h.h.h.",
"h.h.h.h.h.h.h.h.h.h.h.h.h.h.h.h.@ % F O.X...) p y t t 4 + + + % + % % + Y f.f.g.g.g.g.g.g.<.@ O . . h.h.h.h.h.h.h.h.h.h.h.h.h.h.",
"h.h.h.h.h.h.h.h.h.h.h.h.h.h.h.h.. . D ....X.{ s p u u 3 O O @ @ % % & % R g.g.g.g.g.g.f.d.%.. O . . h.h.h.h.h.h.h.h.h.h.h.h.h.h.",
"h.h.h.h.h.h.h.h.h.h.h.h.h.h.h.h.h.h.- - x O.X.{ ) d u t e e e a 2.r.8.8.u.g.g.g.g.g.g.@., : . . h.h.h.h.h.h.h.h.h.h.h.h.h.h.h.h.",
"h.h.h.h.h.h.h.h.h.h.h.h.h.h.h.h.h.h..   z X.X.O...d u u u u u b u.g.g.g.g.g.g.g.g.g.g.L   . . . h.h.h.h.h.h.h.h.h.h.h.h.h.h.h.h.",
"h.h.h.h.h.h.h.h.h.h.h.h.h.h.h.h.h.h.h.h.g z z z z E ! Q ! Q ! / 3.6.s.g.g.g.r.Y P P P , . . h.h.h.h.h.h.h.h.h.h.h.h.h.h.h.h.h.h.",
"h.h.h.h.h.h.h.h.h.h.h.h.h.h.h.h.h.h.h.h.h..   . O ` O.X.O.O.O.X.X.O.y.g.g.g.8.+   . .   . . h.h.h.h.h.h.h.h.h.h.h.h.h.h.h.h.h.h.",
"h.h.h.h.h.h.h.h.h.h.h.h.h.h.h.h.h.h.h.h.h.. . . O A H F H H F F H H &.1.<.1.@.% . . . . . h.h.h.h.h.h.h.h.h.h.h.h.h.h.h.h.h.h.h.",
"h.h.h.h.h.h.h.h.h.h.h.h.h.h.h.h.h.h.h.h.h.h.h.h.h.. . O O . . O . . . . O . . . . h.h.h.h.h.h.h.h.h.h.h.h.h.h.h.h.h.h.h.h.h.h.h.",
"h.h.h.h.h.h.h.h.h.h.h.h.h.h.h.h.h.h.h.h.h.h.h.h.h.O . . . . . . . . . . O . . . . h.h.h.h.h.h.h.h.h.h.h.h.h.h.h.h.h.h.h.h.h.h.h.",
"h.h.h.h.h.h.h.h.h.h.h.h.h.h.h.h.h.h.h.h.h.h.h.h.h.h.h.h.h.h.h.h.h.h.h.h.h.h.h.h.h.h.h.h.h.h.h.h.h.h.h.h.h.h.h.h.h.h.h.h.h.h.h.h.",
"h.h.h.h.h.h.h.h.h.h.h.h.h.h.h.h.h.h.h.h.h.h.h.h.h.h.h.h.h.h.h.h.h.h.h.h.h.h.h.h.h.h.h.h.h.h.h.h.h.h.h.h.h.h.h.h.h.h.h.h.h.h.h.h.",
"h.h.h.h.h.h.h.h.h.h.h.h.h.h.h.h.h.h.h.h.h.h.h.h.h.h.h.h.h.h.h.h.h.h.h.h.h.h.h.h.h.h.h.h.h.h.h.h.h.h.h.h.h.h.h.h.h.h.h.h.h.h.h.h.",
"h.h.h.h.h.h.h.h.h.h.h.h.h.h.h.h.h.h.h.h.h.h.h.h.h.h.h.h.h.h.h.h.h.h.h.h.h.h.h.h.h.h.h.h.h.h.h.h.h.h.h.h.h.h.h.h.h.h.h.h.h.h.h.h.",
"h.h.h.h.h.h.h.h.h.h.h.h.h.h.h.h.h.h.h.h.h.h.h.h.h.h.h.h.h.h.h.h.h.h.h.h.h.h.h.h.h.h.h.h.h.h.h.h.h.h.h.h.h.h.h.h.h.h.h.h.h.h.h.h.",
"h.h.h.h.h.h.h.h.h.h.h.h.h.h.h.h.h.h.h.h.h.h.h.h.h.h.h.h.h.h.h.h.h.h.h.h.h.h.h.h.h.h.h.h.h.h.h.h.h.h.h.h.h.h.h.h.h.h.h.h.h.h.h.h.",
"h.h.h.h.h.h.h.h.h.h.h.h.h.h.h.h.h.h.h.h.h.h.h.h.h.h.h.h.h.h.h.h.h.h.h.h.h.h.h.h.h.h.h.h.h.h.h.h.h.h.h.h.h.h.h.h.h.h.h.h.h.h.h.h."
};
