/* XPM */
static char *result[] = {
/* columns rows colors chars-per-pixel */
"64 64 243 2 ",
"   c #010100",
".  c #090403",
"X  c #0A090A",
"o  c #130B04",
"O  c #1B0C08",
"+  c #181303",
"@  c #1B0313",
"#  c #1A0615",
"$  c #101913",
"%  c #241505",
"&  c #281A04",
"*  c #321D07",
"=  c #220416",
"-  c #28051B",
";  c #231718",
":  c #31061E",
">  c #2B2600",
",  c #382806",
"<  c #353100",
"1  c #292718",
"2  c #312D1C",
"3  c #2C0628",
"4  c #340621",
"5  c #390927",
"6  c #39182A",
"7  c #36102A",
"8  c #0A322B",
"9  c #06332F",
"0  c #383B39",
"q  c #313723",
"w  c #45260A",
"e  c #59360A",
"r  c #473211",
"t  c #65390D",
"y  c #6B3F12",
"u  c #47082D",
"i  c #46162D",
"p  c #4B0831",
"a  c #4A0539",
"s  c #570A38",
"d  c #580A38",
"f  c #4B1A37",
"g  c #56193C",
"h  c #69123B",
"j  c #502F2F",
"k  c #64322B",
"l  c #07413D",
"z  c #235537",
"x  c #4A4300",
"c  c #77430E",
"v  c #645702",
"b  c #794514",
"n  c #6F500B",
"m  c #696100",
"M  c #71660B",
"N  c #4E482D",
"B  c #6A4A35",
"V  c #7A5235",
"C  c #6A5235",
"Z  c #6B663C",
"A  c #480249",
"S  c #520A48",
"D  c #550255",
"F  c #591841",
"G  c #6A0A47",
"H  c #7A0C53",
"J  c #7A0C4E",
"K  c #51374B",
"L  c #670365",
"P  c #79027A",
"I  c #75076F",
"U  c #682053",
"Y  c #09534F",
"T  c #077671",
"R  c #3D6E52",
"E  c #494A4A",
"W  c #585657",
"Q  c #545148",
"!  c #7B7447",
"~  c #767674",
"^  c #696A6A",
"/  c #605D5E",
"(  c #85382F",
")  c #84550D",
"_  c #864B14",
"`  c #965613",
"'  c #814F16",
"]  c #A35C18",
"[  c #92700D",
"{  c #B7671A",
"}  c #AD7712",
"|  c #8B532F",
" . c #C06D1A",
".. c #C87619",
"X. c #D37A1B",
"o. c #E07F1E",
"O. c #880F59",
"+. c #970F63",
"@. c #971463",
"#. c #830A7B",
"$. c #9B0C73",
"%. c #A3136C",
"&. c #AB1272",
"*. c #AE1A74",
"=. c #BA137C",
"-. c #B21676",
";. c #A40E76",
":. c #89256E",
">. c #A82B72",
",. c #B02778",
"<. c #C1157E",
"1. c #866142",
"2. c #857C4E",
"3. c #99744F",
"4. c #AA7752",
"5. c #A1626A",
"6. c #E25571",
"7. c #05807D",
"8. c #65A05F",
"9. c #948A02",
"0. c #B6A601",
"q. c #B19904",
"w. c #CD8516",
"e. c #D88619",
"r. c #CF970F",
"t. c #E8831F",
"y. c #E29716",
"u. c #F79D1B",
"i. c #F68F1F",
"p. c #CBBA00",
"a. c #D5BE02",
"s. c #CFA908",
"d. c #FBA918",
"f. c #FBB513",
"g. c #F6B611",
"h. c #EAAF0F",
"j. c #F48921",
"k. c #FD8F22",
"l. c #FF9422",
"z. c #F68D2E",
"x. c #EEAF25",
"c. c #B7C31C",
"v. c #DBC701",
"b. c #CCD214",
"n. c #E7C705",
"m. c #FAC40D",
"M. c #F6C90A",
"N. c #EBD402",
"B. c #F3DE00",
"V. c #F6D505",
"C. c #F2C413",
"Z. c #F4E000",
"A. c #F9E500",
"S. c #938752",
"D. c #8B924C",
"F. c #A4995E",
"G. c #AF8556",
"H. c #BEA969",
"J. c #989866",
"K. c #FBA549",
"L. c #D68569",
"P. c #C8B972",
"I. c #DDA86C",
"U. c #F0AE71",
"Y. c #E19851",
"T. c #D4C67A",
"R. c #CFC177",
"E. c #F9C87F",
"W. c #950294",
"Q. c #900585",
"!. c #BD1381",
"~. c #AD0797",
"^. c #B72C87",
"/. c #B800B9",
"(. c #A200A3",
"). c #C31483",
"_. c #CA138D",
"`. c #C81685",
"'. c #CE1293",
"]. c #D3129C",
"[. c #D03395",
"{. c #DC0FAD",
"}. c #D511A0",
"|. c #D911A7",
" X c #D20FB3",
".X c #E40CBC",
"XX c #E233A0",
"oX c #B14184",
"OX c #DA5A9A",
"+X c #C84B8F",
"@X c #EA4D9B",
"#X c #F0708F",
"$X c #EB4AA2",
"%X c #EB55A7",
"&X c #FC58BD",
"*X c #F54DAF",
"=X c #FA64B2",
"-X c #FD6AB3",
";X c #FE61BA",
":X c #F463AC",
">X c #CA03C8",
",X c #D904D5",
"<X c #D409CE",
"1X c #EA0ACB",
"2X c #E70AC5",
"3X c #ED07D6",
"4X c #EC07D7",
"5X c #F213DD",
"6X c #F927DA",
"7X c #FD38D5",
"8X c #EC32C9",
"9X c #E900EA",
"0X c #F405E5",
"qX c #F803EE",
"wX c #F805EC",
"eX c #FD0CF6",
"rX c #FF00FE",
"tX c #FA05F5",
"yX c #FE18EE",
"uX c #FE25E6",
"iX c #FC45CB",
"pX c #FE57C3",
"aX c #FF42D1",
"sX c #139689",
"dX c #028B8C",
"fX c #37AC87",
"gX c #17A895",
"hX c #61AE81",
"jX c #959396",
"kX c #A9A9A9",
"lX c #B5B6B6",
"zX c #D8BA84",
"xX c #DFD080",
"cX c #E9D885",
"vX c #F6DE89",
"bX c #F4E38B",
"nX c #F9E88F",
"mX c gray79",
"MX c #EEEEEE",
"NX c #F4F4F4",
"BX c #FDFDFD",
"VX c #DFE0DF",
"CX c None",
/* pixels */
"CXCXCXCXCXCXCXCXCXCXCXCXCXCXCXCXCXCXCXCXCXCXCXCXCXCXCXCXCXCXCXCXCXCXCXCXCXCXCXCXCXCXCXCXCXCXCXCXCXCXCXCXCXCXCXCXCXCXCXCXCXCXCXCX",
"CXCXCXCXCXCXCXCXCXCXCXCXCXCXCXCXCXCXCXCXCXCXCXCXCXCXCXCXCXCXCXCX    CXCX  CXCXCXCXCXCXCXCXCXCXCXCXCXCXCXCXCXCXCXCXCXCXCXCXCXCXCX",
"CXCXCXCXCXCXCXCXCXCXCXCXCXCXCXCXCXCXCXCXCXCXCXCXCXCXCXCXCX                  CXCXCXCXCXCXCXCXCXCXCXCXCXCXCXCXCXCXCXCXCXCXCXCXCXCX",
"CXCXCXCXCXCXCXCXCXCXCXCXCXCXCXCXCXCXCXCXCXCXCXCXCXCXCXCX  % & X > < + o * . CXCXCXCXCXCXCXCXCXCXCXCXCXCXCXCXCXCXCXCXCXCXCXCXCXCX",
"CXCXCXCXCXCXCXCXCXCXCXCXCXCXCXCXCXCXCXCXCXCXCXCXCXCXCXCXX b ] 1 p.n.[ w X.$ CXCXCXCXCXCXCXCXCXCXCXCXCXCXCXCXCXCXCXCXCXCXCXCXCXCX",
"CXCXCXCXCXCXCXCXCXCXCXCXCXCXCXCXCXCXCXCXCXCXCXCXCXCXCXX T fX8.w.N.U.#X6.C.8.Y X CXCXCXCXCXCXCXCXCXCXCXCXCXCXCXCXCXCXCXCXCXCXCXCX",
"CXCXCXCXCXCXCXCXCXCXCXCXCXCXCXCXCXCXCXCXCXCXCXCXCXCXCXX 7.gXhXl.d.6.iX#Xx.fX9   CXCXCXCXCXCXCXCXCXCXCXCXCXCXCXCXCXCXCXCXCXCXCXCX",
"CXCXCXCXCXCXCXCXCXCXCXCXCXCXCXCXCXCXCXCXCXCXCXCXCXCXCXX Y T R ` ] 6.6.5.] Y 9 CXCXCXCXCXCXCXCXCXCXCXCXCXCXCXCXCXCXCXCXCXCXCXCXCX",
"CXCXCXCXCXCXCXCXCXCXCXCXCXCXCXCXCXCXCXCXCXCXCXCXCXCXCXCX% % & & * ] _ % & .   CXCXCXCXCXCXCXCXCXCXCXCXCXCXCXCXCXCXCXCXCXCXCXCXCX",
"CXCXCXCXCXCXCXCXCXCXCXCXCXCXCXCXCXCXCXCXCXCXCXCXCXCXCXo { t.y.a.t.e _ o.X.*   . CXCXCXCXCXCXCXCXCXCXCXCXCXCXCXCXCXCXCXCXCXCXCXCX",
"CXCXCXCXCXCXCXCXCXCXCXCXCXCXCXCXCXCXCXCXCXCXCXCXCXCX& { h.M.V.B.M.w.w.M.M.0.} _   CXCXCXCXCXCXCXCXCXCXCXCXCXCXCXCXCXCXCXCXCXCXCX",
"CXCXCXCXCXCXCXCXCXCXCXCXCXCXCXCXCXCXCXCXCXCXCXCXCXw ` g.B.Z.Z.B.B.m.M.A.B.A.M.r.y O CXCXCXCXCXCXCXCXCXCXCXCXCXCXCXCXCXCXCXCXCXCX",
"CXCXCXCXCXCXCXCXCXCXCXCXCXCXCXCXCXCXCXCXCXCXCX, < ) f.Z.B.B.Z.Z.B.B.Z.B.B.Z.Z.M.e.+ CXCXCXCXCXCXCXCXCXCXCXCXCXCXCXCXCXCXCXCXCXCX",
"CXCXCXCXCXCXCXCXCXCXCXCXCXCXCXCXCX  CXCXCXCX& X.g.B.Z.Z.Z.B.B.B.B.B.Z.B.B.B.B.Z.v.> + + CXCXCXCXCXCXCXCXCXCXCXCXCXCXCXCXCXCXCXCX",
"CXCXCXCXCXCXCXCXCXCXCXCXCXCXCXCXCXCX  .   w X.M.B.B.Z.B.B.B.B.B.B.B.B.B.B.B.Z.B.N.v.p.M   CXCXCXCXCXCXCXCXCXCXCXCXCXCXCXCXCXCXCX",
"CXCXCXCXCXCXCXCXCXCXCXCXCXCXCXCXCX& ` [ 9.q.C.B.B.B.V.f.d.M.A.B.B.Z.Z.B.Z.B.Z.Z.Z.Z.m.n   CXCXCXCXCXCXCXCXCXCXCXCXCXCXCXCXCXCXCX",
"CXCXCXCXCXCXCXCXCXCXCXCXCXCXCXCXCX% ` n.Z.Z.Z.Z.B.Z.V.d.l.d.f.M.B.B.Z.B.Z.Z.V.f.m.B.} t CXCXCXCXCXCXCXCXCXCXCXCXCXCXCXCXCXCXCXCX",
"CXCXCXCXCXCXCXCXCXCXCXCXCXCXCXCXCXCX& s.V.Z.B.Z.B.Z.B.B.d.t.X.X.C.B.B.B.Z.V.y.X.e.N.v + CXCXCXCXCXCXCXCXCXCXCXCXCXCXCXCXCXCXCXCX",
"CXCXCXCXCXCXCXCXCXCXCXCXCXCXCXCXCX& X.j.g.B.Z.B.Z.Z.Z.N.u.y O w e.M.B.B.V.d.b X , v.u.c   CXCXCXCXCXCXCXCXCXCXCXCXCXCXCXCXCXCXCX",
"CXCXCXCXCXCXCXCXCXCXCXCXCXCXCXCXCXCXw X.u.f.B.Z.Z.Z.Z.N.v V 4.4.r ..u.d.u.e | V % y.l._   CXCXCXCXCXCXCXCXCXCXCXCXCXCXCXCXCXCXCX",
"CXCXCXCXCXCXCXCXCXCXCXCXCXCXCXCXCXCXCXt  .u.f.f.x.f.m.N.> | U.U.1.b c y y | V r % o.] w CXCXCXCXCXCXCXCXCXCXCXCXCXCXCXCXCXCXCXCX",
"CXCXCXCXCXCXCXCXCXCXCXCXCXCXCXCXCXCXCX  y {  .j...{ ..N.< 1.vXcXG.B N j N 3.V 1 O ] w CXCXCXCXCXCXCXCXCXCXCXCXCXCXCXCXCXCXCXCXCX",
"CXCXCXCXCXCXCXCXCXCXCXCXCXCXCXCXCXCXCXCX  . *  .n X , v.< 2.nXxX1 F.cXbXT.2 S.F.    CXCXCXCXCXCXCXCXCXCXCXCXCXCXCXCXCXCXCXCXCXCX",
"CXCXCXCXCXCXCXCXCXCXCXCXCXCXCXCXCXCXCXCX  w  .w S.! > v.< ! nXT.& F.nXbXcX2 S.F.    CXCXCXCXCXCXCXCXCXCXCXCXCXCXCXCXCXCXCXCXCXCX",
"CXCXCXCXCXCXCXCXCXCXCXCXCXCXCXCXCXCXCXCXt } h.& G.3.> N.0.M S.R.$ F.nXbXT., S.F.      CXCXCXCXCXCXCXCXCXCXCXCXCXCXCXCXCXCXCXCXCX",
"CXCXCXCXCXCXCXCXCXCXCXCXCXCXCXCXCXCXCX  ) m.N.n | N z 9.N.m N xX! R.nXnXbX8.H.G.o e +   CXCXCXCXCXCXCXCXCXCXCXCXCXCXCXCXCXCXCXCX",
"CXCXCXCXCXCXCXCXCXCXCXCXCXCXCX    . > > 9.A.N.e.r Y dX8 9.M C bXbXT.H.R.bXvXI.V 1 { w CXCXCXCXCXCXCXCXCXCXCXCXCXCXCXCXCXCXCXCXCX",
"CXCXCXCXCXCXCXCXCXCXCXCXCXCXCXCXCX> p.N.N.Z.n.< Y dXsXsX8 | U.bXbXC $ N cXU.B 9 sX$ CXCXCXCXCXCXCXCXCXCXCXCXCXCXCXCXCXCXCXCXCXCX",
"CXCXCXCXCXCXCXCXCXCXCXCXCXCXCXCXCX& y.V.B.B.N.X.q Y 7.8 ] b B U.vXT.P.P.I.k o 9 dXX CXCXCXCXCXCXCXCXCXCXCXCXCXCXCXCXCXCXCXCXCXCX",
"CXCXCXCXCXCXCXCXCXCXCXCXCXCXCXCXCX% y v 0.V.d._ + $ 9   e b ' B Z Z Z Z B Q.:.K 9 CXCXCXCXCXCXCXCXCXCXCXCXCXCXCXCXCXCXCXCXCXCXCX",
"CXCXCXCXCXCXCXCXCXCXCXCXCXCXCXCXCXCXw w } h.] j f f f f A | | A f A i x x W.8X[.f CXCXCXCXCXCXCXCXCXCXCXCXCXCXCXCXCXCXCXCXCXCXCX",
"CXCXCXCXCXCXCXCXCXCXCXCXCXCXCXCXCX& X.j.j.] 7 OX-X=X-X=XuXP D 4X*X7X#Xb.c.x Q.6XOX7 .   CXCXCXCXCXCXCXCXCXCXCXCXCXCXCXCXCXCXCXCX",
"CXCXCXCXCXCXCXCXCXCXCXCXCXCXCXCXCXCX& ..) S ,X&X-X-X-X-X;X6X(.7 OXK.F.7.hXb.m K :XOX6   CXCXCXCXCXCXCXCXCXCXCXCXCXCXCXCXCXCXCXCX",
"CXCXCXCXCXCXCXCXCXCXCXCXCXCXCXCXCXCX.  .c A yX&X-X-X-X-X-XpX^.O OXK.D.dXgXb.m S 6X&Xf   CXCXCXCXCXCXCXCXCXCXCXCXCXCXCXCXCXCXCXCX",
"CXCXCXCXCXCXCXCXCXCXCXCXCXCXCXCXCXCX.  .c A wX&X-X-X;X7X7X+X:.#.:X@X6.8.8.L.j D tX7Xa   CXCXCXCXCXCXCXCXCXCXCXCXCXCXCXCXCXCXCXCX",
"CXCXCXCXCXCXCXCXCXCXCXCXCXCXCXCXCXCX.  .` g >XiX;X;XaXyX,XD A eXiXuX%Xz.K.uXL S 6X>XA CXCXCXCXCXCXCXCXCXCXCXCXCXCXCXCXCXCXCXCXCX",
"CXCXCXCXCXCXCXCXCXCXCXCXCXCXCXCXCXCX. { j.{ 4 <XiX8X5XOXg o D 9XrXaX-XpXyXqXL j L.; CXCXCXCXCXCXCXCXCXCXCXCXCXCXCXCXCXCXCXCXCXCX",
"CXCXCXCXCXCXCXCXCXCXCXCXCXCXCXCXCXCXCX& ` j.{ i 3 3 3 2 F.P.S.D 9XeXyXeXwXD E ~ ~ X CXCXCXCXCXCXCXCXCXCXCXCXCXCXCXCXCXCXCXCXCXCX",
"CXCXCXCXCXCXCXCXCXCXCXCXCXCXCXCXCXCXCX  * ` j.] ` ` b X G.zXJ.E L ,XuXaX8X3 ~ lX~ X CXCXCXCXCXCXCXCXCXCXCXCXCXCXCXCXCXCXCXCXCXCX",
"CXCXCXCXCXCXCXCXCXCXCXCXCXCXCXCXCXCXCX  % _ i.k.k.o._ $ 4.jXjXjX0 P  XpX:X6 jXmXQ X CXCXCXCXCXCXCXCXCXCXCXCXCXCXCXCXCXCXCXCXCXCX",
"CXCXCXCXCXCXCXCXCXCXCXCXCXCXCX    . + + ` k.k.k.t._ = = W ~ kXMXkXE I <X+X6 kXkX  CXCXCXCXCXCXCXCXCXCXCXCXCXCXCXCXCXCXCXCXCXCXCX",
"CXCXCXCXCXCXCXCXCXCXCXCXCXCXCXCXCX> p.y.j.k.k.j.t h -.&.7 E kXNXMXMXjX$ ; / mXkX  CXCXCXCXCXCXCXCXCXCXCXCXCXCXCXCXCXCXCXCXCXCXCX",
"CXCXCXCXCXCXCXCXCXCXCXCXCXCXCXCXCXCXx s.f.i.j.e h ,.$X).+.g E lXNXBXVXlXlX0 ^ ^   CXCXCXCXCXCXCXCXCXCXCXCXCXCXCXCXCXCXCXCXCXCXCX",
"CXCXCXCXCXCXCXCXCXCXCXCXCXCXCXCXCXCXCXm r.y.b h ,.*X:X$X$X@.f E lXMXBXBXNX/ 0 K S X CXCXCXCXCXCXCXCXCXCXCXCXCXCXCXCXCXCXCXCXCXCX",
"CXCXCXCXCXCXCXCXCXCXCXCXCXCXCXCXCXCXCX  m [ 6 <.%X-X-X-X-X$X%.7 W lXMXBXNXlXQ f O.u CXCXCXCXCXCXCXCXCXCXCXCXCXCXCXCXCXCXCXCXCXCX",
"CXCXCXCXCXCXCXCXCXCXCXCXCXCXCXCXCXCXCXCXo u <.%X-X-X-X-X-X-X%X*.3 W lXBXBXNXkXE 4 *.5 CXCXCXCXCXCXCXCXCXCXCXCXCXCXCXCXCXCXCXCXCX",
"CXCXCXCXCXCXCXCXCXCXCXCXCXCXCXCXCXCXCXCX%.-.`.[.$X-X-X-X-X-X=X$X*.6 Q kXNXkXE K OX%Xi . CXCXCXCXCXCXCXCXCXCXCXCXCXCXCXCXCXCXCXCX",
"CXCXCXCXCXCXCXCXCXCXCXCXCXCXCXCXCXCXCXCX$..X<.d >.$X-X-X-X-X-X=X$X%.F 0 W 0 F >.=X[.@.p CXCXCXCXCXCXCXCXCXCXCXCXCXCXCXCXCXCXCXCX",
"CXCXCXCXCXCXCXCXCXCXCXCXCXCXCXCXCXCXCX5 ~.,XJ p +.XX7XiXoX+X%X=X-X$X>.F u u G >.$X`.).G   CXCXCXCXCXCXCXCXCXCXCXCXCXCXCXCXCXCXCX",
"CXCXCXCXCXCXCXCXCXCXCXCXCXCXCXCXCXCX- ;.3X/.@ &.'.2XrX>Xa J XX&XpX&XpX*X]._.d p ;._.].H @ CXCXCXCXCXCXCXCXCXCXCXCXCXCXCXCXCXCXCX",
"CXCXCXCXCXCXCXCXCXCXCXCXCXCXCXCXCX= &.3XrX/.@ &.1XrX>X3 O.).{.eXeXeXeXtXqX].<.J 3 4XrX.XO.. CXCXCXCXCXCXCXCXCXCXCXCXCXCXCXCXCXCX",
"CXCXCXCXCXCXCXCXCXCXCXCXCXCXCXCXCX@ =.0XrX/.@ &.4XrX,X@ +..XqXrXrXrXrXrXrX0X|.O.3 9XrX2X+.. CXCXCXCXCXCXCXCXCXCXCXCXCXCXCXCXCXCX",
"CXCXCXCXCXCXCXCXCXCXCXCXCXCXCXCXCX= =.0X/.I H  XqX>XI G  X0XrXrXrXrXrXrXrXrX0X~.G P ,X1X+.. CXCXCXCXCXCXCXCXCXCXCXCXCXCXCXCXCXCX",
"CXCXCXCXCXCXCXCXCXCXCXCXCXCXCXCX= a =.0XP - _.qXrXW.= !.0XrXrXrXrXrXrXrXrXrXrX3X;.@ /.1X+.. CXCXCXCXCXCXCXCXCXCXCXCXCXCXCXCXCXCX",
"CXCXCXCXCXCXCXCXCXCXCXCXCXCXCX  p ).'.0XP 4 _.0XrXW.# !.0XrXrXrXrXrXrXrXrXrXrX3X&.@ /.2X@.@ CXCXCXCXCXCXCXCXCXCXCXCXCXCXCXCXCXCX",
"CXCXCXCXCXCXCXCXCXCXCXCXCXCXCX  u '.0XrXP 4 _.qXrXW.= !.0XrXrXrXrXrXrXrXrXrXrX3X&.@ /.1X<.+.= CXCXCXCXCXCXCXCXCXCXCXCXCXCXCXCXCX",
"CXCXCXCXCXCXCXCXCXCXCXCXCXCXCX  p _.{.qXP 4 _.qXrXW.= !.0XrXrXrXrXrXrXrXrXrXrX3X&.@ /.2X<.=.= CXCXCXCXCXCXCXCXCXCXCXCXCXCXCXCXCX",
"CXCXCXCXCXCXCXCXCXCXCXCXCXCXCXCX4 O.)..XL 4 _.qXrXW.= !.0XrXrXrXrXrXrXrXrXrXrX3X&.@ ~.|.`.=.= CXCXCXCXCXCXCXCXCXCXCXCXCXCXCXCXCX",
"CXCXCXCXCXCXCXCXCXCXCXCXCXCXCXCXCX= +.%.p 4 _.3XqXQ.- !.1XqXqXrXrXrXrXrXrXrXrX3X*.@ O.=.%.+.= CXCXCXCXCXCXCXCXCXCXCXCXCXCXCXCXCX",
"CXCXCXCXCXCXCXCXCXCXCXCXCXCXCXCXCXCXX X . 4 =.)._.G = &.).).{.rXrXtXrXtXrXrXrX1X%.# O.G . . CXCXCXCXCXCXCXCXCXCXCXCXCXCXCXCXCXCX",
"CXCXCXCXCXCXCXCXCXCXCXCXCXCXCXCXCXCXCXCXCXCX: - - @ . - : O._.].}.}.}.}.].].}.$.- . # - CXCXCXCXCXCXCXCXCXCXCXCXCXCXCXCXCXCXCXCX",
"CXCXCXCXCXCXCXCXCXCXCXCXCXCXCXCXCXCXCXCXCXCXCXCXCXCXCXCXCX5 s s s s s s s s s u CXCXCXCXCXCXCXCXCXCXCXCXCXCXCXCXCXCXCXCXCXCXCXCX",
"CXCXCXCXCXCXCXCXCXCXCXCXCXCXCXCXCXCXCXCXCXCXCXCXCXCXCXCXCXCX                  CXCXCXCXCXCXCXCXCXCXCXCXCXCXCXCXCXCXCXCXCXCXCXCXCX",
"CXCXCXCXCXCXCXCXCXCXCXCXCXCXCXCXCXCXCXCXCXCXCXCXCXCXCXCXCXCXCXCXCXCXCXCXCXCXCXCXCXCXCXCXCXCXCXCXCXCXCXCXCXCXCXCXCXCXCXCXCXCXCXCX"
};
