/* XPM */
static char *result[] = {
/* columns rows colors chars-per-pixel */
"64 64 4 1 ",
"  c gray12",
". c #BA6111",
"X c #3261A8",
"o c #FFD9B2",
/* pixels */
"........ o.... Xo........ o.... Xo........ o.... Xo........ o...",
"........ o.... Xo........ o.... Xo........ o.... Xo........ o...",
"........ o.... Xo........ o.... Xo........ o.... Xo........ o...",
"........ o ... Xo........ o ... Xo........ o ... Xo........ o ..",
"........ .    .Xo........ .    .Xo........ .    .Xo........ .   ",
"........ ooooo Xo........ ooooo Xo........ ooooo Xo........ oooo",
"........ o.... Xo........ o.... Xo........ o.... Xo........ o...",
"........ o.... Xo........ o.... Xo........ o.... Xo........ o...",
"........ o.... Xo........ o.... Xo........ o.... Xo........ o...",
" ...... o..... X  ...... o..... X  ...... o..... X  ...... o....",
"o  .... o..... Xoo  .... o..... Xoo  .... o..... Xoo  .... o....",
".oo    o...... Xo.oo    o...... Xo.oo    o...... Xo.oo    o.....",
"...ooo o...... Xo...ooo o...... Xo...ooo o...... Xo...ooo o.....",
"...... o.....  Xo...... o.....  Xo...... o.....  Xo...... o.....",
"      .o      .X.      .o      .X.      .o      .X.      .o     ",
"XXXXXXXXXXXXXXXXXXXXXXXXXXXXXXXXXXXXXXXXXXXXXXXXXXXXXXXXXXXXXXXX",
"oooooooo .oooo.X.oooooooo .oooo.X.oooooooo .oooo.X.oooooooo .ooo",
"........ o.... Xo........ o.... Xo........ o.... Xo........ o...",
"........ o.... Xo........ o.... Xo........ o.... Xo........ o...",
"........ o.... Xo........ o.... Xo........ o.... Xo........ o...",
"........ o ... Xo........ o ... Xo........ o ... Xo........ o ..",
"........ .    .Xo........ .    .Xo........ .    .Xo........ .   ",
"........ ooooo Xo........ ooooo Xo........ ooooo Xo........ oooo",
"........ o.... Xo........ o.... Xo........ o.... Xo........ o...",
"........ o.... Xo........ o.... Xo........ o.... Xo........ o...",
"........ o.... Xo........ o.... Xo........ o.... Xo........ o...",
" ...... o..... X  ...... o..... X  ...... o..... X  ...... o....",
"o  .... o..... Xoo  .... o..... Xoo  .... o..... Xoo  .... o....",
".oo    o...... Xo.oo    o...... Xo.oo    o...... Xo.oo    o.....",
"...ooo o...... Xo...ooo o...... Xo...ooo o...... Xo...ooo o.....",
"...... o.....  Xo...... o.....  Xo...... o.....  Xo...... o.....",
"      .o      .X.      .o      .X.      .o      .X.      .o     ",
"XXXXXXXXXXXXXXXXXXXXXXXXXXXXXXXXXXXXXXXXXXXXXXXXXXXXXXXXXXXXXXXX",
"oooooooo .oooo.X.oooooooo .oooo.X.oooooooo .oooo.X.oooooooo .ooo",
"........ o.... Xo........ o.... Xo........ o.... Xo........ o...",
"........ o.... Xo........ o.... Xo........ o.... Xo........ o...",
"........ o.... Xo........ o.... Xo........ o.... Xo........ o...",
"........ o ... Xo........ o ... Xo........ o ... Xo........ o ..",
"........ .    .Xo........ .    .Xo........ .    .Xo........ .   ",
"........ ooooo Xo........ ooooo Xo........ ooooo Xo........ oooo",
"........ o.... Xo........ o.... Xo........ o.... Xo........ o...",
"........ o.... Xo........ o.... Xo........ o.... Xo........ o...",
"........ o.... Xo........ o.... Xo........ o.... Xo........ o...",
" ...... o..... X  ...... o..... X  ...... o..... X  ...... o....",
"o  .... o..... Xoo  .... o..... Xoo  .... o..... Xoo  .... o....",
".oo    o...... Xo.oo    o...... Xo.oo    o...... Xo.oo    o.....",
"...ooo o...... Xo...ooo o...... Xo...ooo o...... Xo...ooo o.....",
"...... o.....  Xo...... o.....  Xo...... o.....  Xo...... o.....",
"      .o      .X.      .o      .X.      .o      .X.      .o     ",
"XXXXXXXXXXXXXXXXXXXXXXXXXXXXXXXXXXXXXXXXXXXXXXXXXXXXXXXXXXXXXXXX",
"oooooooo .oooo.X.oooooooo .oooo.X.oooooooo .oooo.X.oooooooo .ooo",
"........ o.... Xo........ o.... Xo........ o.... Xo........ o...",
"........ o.... Xo........ o.... Xo........ o.... Xo........ o...",
"........ o.... Xo........ o.... Xo........ o.... Xo........ o...",
"........ o ... Xo........ o ... Xo........ o ... Xo........ o ..",
"........ .    .Xo........ .    .Xo........ .    .Xo........ .   ",
"........ ooooo Xo........ ooooo Xo........ ooooo Xo........ oooo",
"........ o.... Xo........ o.... Xo........ o.... Xo........ o...",
"........ o.... Xo........ o.... Xo........ o.... Xo........ o...",
"........ o.... Xo........ o.... Xo........ o.... Xo........ o...",
" ...... o..... X  ...... o..... X  ...... o..... X  ...... o....",
"o  .... o..... Xoo  .... o..... Xoo  .... o..... Xoo  .... o....",
".oo    o...... Xo.oo    o...... Xo.oo    o...... Xo.oo    o.....",
"...ooo o...... Xo...ooo o...... Xo...ooo o...... Xo...ooo o....."
};
