/* XPM */
static char *result[] = {
/* columns rows colors chars-per-pixel */
"64 64 3 1 ",
"  c #1E1E1E",
". c #21672B",
"X c #3B8938",
/* pixels */
"XXXXXXXXXXXX....            ........            ....XXXXXXXXXXXX",
"XXXXXXXXXXXX....            ........            ....XXXXXXXXXXXX",
"XXXXXXXXXXXX....            ........            ....XXXXXXXXXXXX",
"XXXXXXXXXXXX....            ........            ....XXXXXXXXXXXX",
"XXXXXXXX....    XXXXXXXX....        ....XXXXXXXX    ....XXXXXXXX",
"XXXXXXXX....    XXXXXXXX....        ....XXXXXXXX    ....XXXXXXXX",
"XXXXXXXX....    XXXXXXXX....        ....XXXXXXXX    ....XXXXXXXX",
"XXXXXXXX....    XXXXXXXX....        ....XXXXXXXX    ....XXXXXXXX",
"XXXX........    XXXX........        ........XXXX    ........XXXX",
"XXXX........    XXXX........        ........XXXX    ........XXXX",
"XXXX........    XXXX........        ........XXXX    ........XXXX",
"XXXX........    XXXX........        ........XXXX    ........XXXX",
"....                ........        ........                ....",
"....                ........        ........                ....",
"....                ........        ........                ....",
"....                ........        ........                ....",
"    XXXXXXXX........        ........        ........XXXXXXXX    ",
"    XXXXXXXX........        ........        ........XXXXXXXX    ",
"    XXXXXXXX........        ........        ........XXXXXXXX    ",
"    XXXXXXXX........        ........        ........XXXXXXXX    ",
"    XXXX................    XXXXXXXX    ................XXXX    ",
"    XXXX................    XXXXXXXX    ................XXXX    ",
"    XXXX................    XXXXXXXX    ................XXXX    ",
"    XXXX................    XXXXXXXX    ................XXXX    ",
"        ................    XXXXXXXX    ................        ",
"        ................    XXXXXXXX    ................        ",
"        ................    XXXXXXXX    ................        ",
"        ................    XXXXXXXX    ................        ",
"....                        ........                        ....",
"....                        ........                        ....",
"....                        ........                        ....",
"....                        ........                        ....",
"        ................                ................        ",
"        ................                ................        ",
"        ................                ................        ",
"        ................                ................        ",
"    XXXX............        ........        ............XXXX    ",
"    XXXX............        ........        ............XXXX    ",
"    XXXX............        ........        ............XXXX    ",
"    XXXX............        ........        ............XXXX    ",
"    XXXXXXXX....        ................        ....XXXXXXXX    ",
"    XXXXXXXX....        ................        ....XXXXXXXX    ",
"    XXXXXXXX....        ................        ....XXXXXXXX    ",
"    XXXXXXXX....        ................        ....XXXXXXXX    ",
"                        ................                        ",
"                        ................                        ",
"                        ................                        ",
"                        ................                        ",
"....        ........    XXXX........XXXX    ........        ....",
"....        ........    XXXX........XXXX    ........        ....",
"....        ........    XXXX........XXXX    ........        ....",
"....        ........    XXXX........XXXX    ........        ....",
"........    XXXX....        XXXXXXXX        ....XXXX    ........",
"........    XXXX....        XXXXXXXX        ....XXXX    ........",
"........    XXXX....        XXXXXXXX        ....XXXX    ........",
"........    XXXX....        XXXXXXXX        ....XXXX    ........",
"XXXX....                                                ....XXXX",
"XXXX....                                                ....XXXX",
"XXXX....                                                ....XXXX",
"XXXX....                                                ....XXXX",
"XXXXXXXX....................        ....................XXXXXXXX",
"XXXXXXXX....................        ....................XXXXXXXX",
"XXXXXXXX....................        ....................XXXXXXXX",
"XXXXXXXX....................        ....................XXXXXXXX"
};
